<svg xmlns="http://www.w3.org/2000/svg" width="32" height="32" viewBox="0 0 32 32" fill="none">
  <path d="M22.6667 16C26.3486 16 29.3334 13.0152 29.3334 9.33329C29.3334 5.65139 26.3486 2.66663 22.6667 2.66663C18.9848 2.66663 16 5.65139 16 9.33329C16 10.3997 16.2505 11.4077 16.6957 12.3016C16.814 12.5392 16.8534 12.8107 16.7848 13.067L16.3877 14.5511C16.2153 15.1953 16.8047 15.7847 17.4489 15.6123L18.933 15.2152C19.1893 15.1466 19.4608 15.186 19.6984 15.3043C20.5923 15.7495 21.6003 16 22.6667 16Z" stroke="black" stroke-width="2"/>
  <path d="M18.8009 21.3696L18.0759 20.681L18.8009 21.3696ZM19.4082 20.7303L20.1332 21.419L19.4082 20.7303ZM22.6304 20.2831L22.1315 21.1498L22.6304 20.2831ZM25.1777 21.7494L24.6789 22.616L25.1777 21.7494ZM25.8955 26.3446L26.6206 27.0333L25.8955 26.3446ZM24.0015 28.3387L23.2764 27.65L24.0015 28.3387ZM22.235 29.2842L22.3332 30.2793L22.235 29.2842ZM9.08711 23.3003L9.81216 22.6116L9.08711 23.3003ZM2.67048 10.6213L1.67191 10.6749L1.67191 10.6749L2.67048 10.6213ZM11.3033 12.6709L12.0284 13.3595L11.3033 12.6709ZM11.5123 8.92417L12.3288 8.34686L11.5123 8.92417ZM9.83097 6.54619L9.01444 7.1235L9.01444 7.12351L9.83097 6.54619ZM5.68189 6.1449L6.40695 6.83358V6.83358L5.68189 6.1449ZM3.58909 8.34822L2.86403 7.65953H2.86403L3.58909 8.34822ZM13.4175 18.7412L14.1425 18.0526L13.4175 18.7412ZM19.526 22.0583L20.1332 21.419L18.6831 20.0416L18.0759 20.681L19.526 22.0583ZM22.1315 21.1498L24.6789 22.616L25.6766 20.8827L23.1292 19.4164L22.1315 21.1498ZM25.1705 25.6559L23.2764 27.65L24.7265 29.0274L26.6206 27.0333L25.1705 25.6559ZM22.1368 28.289C20.2234 28.4779 15.2311 28.3167 9.81216 22.6116L8.36205 23.989C14.2679 30.2067 19.9014 30.5194 22.3332 30.2793L22.1368 28.289ZM9.81216 22.6116C4.644 17.1705 3.77709 12.5808 3.66904 10.5677L1.67191 10.6749C1.80425 13.1405 2.85116 18.187 8.36205 23.989L9.81216 22.6116ZM11.646 13.7622L12.0284 13.3595L10.5783 11.9822L10.1958 12.3848L11.646 13.7622ZM12.3288 8.34686L10.6475 5.96888L9.01444 7.12351L10.6958 9.50149L12.3288 8.34686ZM4.95683 5.45621L2.86403 7.65953L4.31415 9.03691L6.40695 6.83358L4.95683 5.45621ZM10.9209 13.0735C10.1958 12.3848 10.1949 12.3858 10.194 12.3867C10.1937 12.3871 10.1927 12.3881 10.1921 12.3887C10.1908 12.3901 10.1895 12.3915 10.1882 12.3929C10.1856 12.3957 10.1829 12.3987 10.1801 12.4017C10.1745 12.4079 10.1686 12.4145 10.1623 12.4217C10.1499 12.4361 10.1362 12.4525 10.1215 12.471C10.0922 12.508 10.059 12.5535 10.0243 12.6079C9.9545 12.7169 9.87886 12.8605 9.81479 13.0405C9.68452 13.4066 9.61353 13.8914 9.70224 14.4968C9.87652 15.6863 10.6559 17.2859 12.6924 19.4299L14.1425 18.0526C12.239 16.0485 11.7701 14.8142 11.6811 14.2069C11.6382 13.9138 11.6818 13.7595 11.699 13.711C11.7087 13.6837 11.7151 13.6762 11.7089 13.6859C11.7059 13.6906 11.6999 13.6994 11.6898 13.7121C11.6847 13.7185 11.6787 13.7259 11.6714 13.7342C11.6678 13.7384 11.6639 13.7428 11.6596 13.7475C11.6575 13.7498 11.6553 13.7522 11.653 13.7546C11.6519 13.7558 11.6507 13.7571 11.6496 13.7583C11.649 13.759 11.6481 13.7599 11.6478 13.7602C11.6469 13.7612 11.646 13.7622 10.9209 13.0735ZM12.6924 19.4299C14.7229 21.5676 16.2564 22.408 17.4264 22.598C18.0268 22.6955 18.5127 22.6177 18.8807 22.4725C19.0606 22.4016 19.2029 22.3183 19.3097 22.2425C19.363 22.2047 19.4074 22.1689 19.4432 22.1375C19.4611 22.1217 19.4769 22.1071 19.4907 22.0938C19.4976 22.0872 19.504 22.0809 19.5098 22.075C19.5128 22.072 19.5156 22.0691 19.5183 22.0664C19.5196 22.065 19.5209 22.0636 19.5222 22.0623C19.5229 22.0616 19.5238 22.0606 19.5241 22.0603C19.525 22.0593 19.526 22.0583 18.8009 21.3696C18.0759 20.681 18.0768 20.68 18.0777 20.679C18.078 20.6787 18.0789 20.6778 18.0795 20.6772C18.0807 20.6759 18.0819 20.6747 18.083 20.6735C18.0854 20.6711 18.0876 20.6688 18.0899 20.6665C18.0943 20.662 18.0986 20.6578 18.1026 20.6539C18.1107 20.6462 18.1179 20.6395 18.1243 20.6339C18.1371 20.6228 18.1466 20.6155 18.1527 20.6112C18.1652 20.6023 18.1639 20.6053 18.1469 20.612C18.1211 20.6222 18 20.665 17.747 20.6239C17.2103 20.5367 16.052 20.0629 14.1425 18.0526L12.6924 19.4299ZM10.6475 5.96888C9.29604 4.05744 6.59175 3.73495 4.95683 5.45621L6.40695 6.83358C7.10406 6.09966 8.33131 6.15731 9.01444 7.1235L10.6475 5.96888ZM3.66904 10.5677C3.64046 10.0353 3.8723 9.5021 4.31415 9.03691L2.86403 7.65953C2.14957 8.41173 1.60653 9.45666 1.67191 10.6749L3.66904 10.5677ZM23.2764 27.65C22.9043 28.0417 22.5151 28.2517 22.1368 28.289L22.3332 30.2793C23.3293 30.181 24.1354 29.6498 24.7265 29.0274L23.2764 27.65ZM12.0284 13.3595C13.3185 12.0013 13.4098 9.87575 12.3288 8.34686L10.6958 9.50149C11.2586 10.2976 11.1723 11.3568 10.5783 11.9822L12.0284 13.3595ZM24.6789 22.616C25.7733 23.246 25.9875 24.7957 25.1705 25.6559L26.6206 27.0333C28.3606 25.2014 27.8538 22.1359 25.6766 20.8827L24.6789 22.616ZM20.1332 21.419C20.6472 20.8779 21.4479 20.7563 22.1315 21.1498L23.1292 19.4164C21.6646 18.5734 19.8481 18.8151 18.6831 20.0416L20.1332 21.419Z" fill="black"/>
</svg>