<svg xmlns="http://www.w3.org/2000/svg" width="25" height="24" viewBox="0 0 25 24" fill="none">
  <path d="M15.6666 16L15.5195 16.7354C15.8512 16.8018 16.1862 16.6379 16.3374 16.3354L15.6666 16ZM8.66663 9L8.33122 8.32918C8.02871 8.48043 7.86486 8.81544 7.93119 9.14709L8.66663 9ZM9.02064 8.82299L9.35605 9.49381L9.35605 9.49381L9.02064 8.82299ZM9.98317 6.29136L10.6795 6.01281L9.98317 6.29136ZM9.16951 4.25722L8.47316 4.53576L9.16951 4.25722ZM20.4094 15.4971L20.1309 16.1935L20.4094 15.4971ZM18.3753 14.6835L18.6538 13.9871H18.6538L18.3753 14.6835ZM15.8436 15.646L16.5145 15.9814V15.9814L15.8436 15.646ZM16.9166 11C16.9166 11.4142 17.2524 11.75 17.6666 11.75C18.0808 11.75 18.4166 11.4142 18.4166 11H16.9166ZM17.3621 9.46927L18.0551 9.18225L17.3621 9.46927ZM15.1974 7.30448L15.4844 6.61157L15.1974 7.30448ZM13.6666 6.25C13.2524 6.25 12.9166 6.58579 12.9166 7C12.9166 7.41421 13.2524 7.75 13.6666 7.75V6.25ZM20.9166 11C20.9166 11.4142 21.2524 11.75 21.6666 11.75C22.0808 11.75 22.4166 11.4142 22.4166 11H20.9166ZM21.0577 7.93853L21.7506 7.65152L21.0577 7.93853ZM16.7281 3.60896L17.0151 2.91605V2.91605L16.7281 3.60896ZM13.6666 2.25C13.2524 2.25 12.9166 2.58579 12.9166 3C12.9166 3.41421 13.2524 3.75 13.6666 3.75V2.25ZM20.9166 17.3541V19H22.4166V17.3541H20.9166ZM5.66663 3.75H7.31256V2.25H5.66663V3.75ZM15.6666 16C15.8137 15.2646 15.8139 15.2646 15.8141 15.2646C15.8142 15.2647 15.8144 15.2647 15.8145 15.2647C15.8147 15.2648 15.8149 15.2648 15.815 15.2648C15.8153 15.2649 15.8155 15.2649 15.8155 15.2649C15.8154 15.2649 15.8148 15.2648 15.8137 15.2645C15.8113 15.264 15.8066 15.2631 15.7998 15.2615C15.786 15.2585 15.7633 15.2533 15.7326 15.2459C15.671 15.2309 15.577 15.2066 15.4564 15.1711C15.2148 15.1 14.8683 14.9847 14.4621 14.8106C13.6462 14.461 12.6105 13.8833 11.697 12.9697L10.6363 14.0303C11.7227 15.1167 12.937 15.789 13.8712 16.1894C14.34 16.3903 14.7435 16.525 15.0331 16.6101C15.1781 16.6528 15.2951 16.6832 15.378 16.7034C15.4195 16.7135 15.4526 16.721 15.4764 16.7263C15.4883 16.7289 15.4979 16.7309 15.5051 16.7325C15.5087 16.7332 15.5117 16.7339 15.5142 16.7343C15.5154 16.7346 15.5164 16.7348 15.5173 16.735C15.5178 16.7351 15.5182 16.7352 15.5185 16.7352C15.5187 16.7353 15.519 16.7353 15.5191 16.7353C15.5193 16.7354 15.5195 16.7354 15.6666 16ZM11.697 12.9697C10.7834 12.0561 10.2056 11.0204 9.85598 10.2046C9.6819 9.79836 9.56658 9.45184 9.49552 9.21025C9.46005 9.08962 9.43575 8.99565 9.42077 8.93406C9.41328 8.90329 9.40813 8.88065 9.40509 8.86687C9.40357 8.85999 9.40258 8.85532 9.40208 8.85296C9.40184 8.85178 9.40171 8.85118 9.40171 8.85117C9.40171 8.85116 9.40174 8.8513 9.4018 8.85159C9.40183 8.85174 9.40186 8.85192 9.40191 8.85214C9.40193 8.85225 9.40197 8.85244 9.40198 8.8525C9.40202 8.8527 9.40206 8.85291 8.66663 9C7.93119 9.14709 7.93124 9.14732 7.93128 9.14756C7.9313 9.14765 7.93135 9.1479 7.93139 9.14809C7.93147 9.14846 7.93155 9.14887 7.93164 9.14932C7.93182 9.15022 7.93204 9.15127 7.93228 9.15247C7.93278 9.15488 7.9334 9.15789 7.93416 9.1615C7.93568 9.16873 7.93774 9.17834 7.94037 9.19026C7.94562 9.21408 7.95317 9.2471 7.96327 9.28859C7.98344 9.37154 8.01383 9.48851 8.05648 9.6335C8.14167 9.92316 8.27635 10.3266 8.47727 10.7954C8.87761 11.7296 9.54988 12.9439 10.6363 14.0303L11.697 12.9697ZM9.00204 9.67082L9.35605 9.49381L8.68523 8.15217L8.33122 8.32918L9.00204 9.67082ZM10.6795 6.01281L9.86587 3.97868L8.47316 4.53576L9.28681 6.5699L10.6795 6.01281ZM20.688 14.8008L18.6538 13.9871L18.0967 15.3798L20.1309 16.1935L20.688 14.8008ZM15.1728 15.3106L14.9958 15.6646L16.3374 16.3354L16.5145 15.9814L15.1728 15.3106ZM18.6538 13.9871C17.3259 13.4559 15.8124 14.0313 15.1728 15.3106L16.5145 15.9814C16.8052 15.3999 17.4931 15.1384 18.0967 15.3798L18.6538 13.9871ZM9.35605 9.49381C10.6353 8.85419 11.2107 7.34076 10.6795 6.01281L9.28681 6.5699C9.52826 7.17351 9.26671 7.86143 8.68523 8.15217L9.35605 9.49381ZM7.31256 3.75C7.82369 3.75 8.28333 4.06119 8.47316 4.53576L9.86587 3.97868C9.44825 2.93462 8.43705 2.25 7.31256 2.25V3.75ZM22.4166 17.3541C22.4166 16.2296 21.732 15.2184 20.688 14.8008L20.1309 16.1935C20.6054 16.3833 20.9166 16.8429 20.9166 17.3541H22.4166ZM19.6666 20.25C11.2443 20.25 4.41663 13.4223 4.41663 5H2.91663C2.91663 14.2508 10.4159 21.75 19.6666 21.75V20.25ZM19.6666 21.75C21.1854 21.75 22.4166 20.5188 22.4166 19H20.9166C20.9166 19.6904 20.357 20.25 19.6666 20.25V21.75ZM4.41663 5C4.41663 4.30964 4.97627 3.75 5.66663 3.75V2.25C4.14784 2.25 2.91663 3.48122 2.91663 5H4.41663ZM18.4166 11C18.4166 10.3762 18.2938 9.75855 18.0551 9.18225L16.6692 9.75628C16.8326 10.1506 16.9166 10.5732 16.9166 11H18.4166ZM18.0551 9.18225C17.8163 8.60596 17.4665 8.08232 17.0254 7.64124L15.9647 8.7019C16.2665 9.00369 16.5059 9.36197 16.6692 9.75628L18.0551 9.18225ZM17.0254 7.64124C16.5843 7.20016 16.0607 6.85028 15.4844 6.61157L14.9103 7.99739C15.3047 8.16072 15.6629 8.40011 15.9647 8.7019L17.0254 7.64124ZM15.4844 6.61157C14.9081 6.37286 14.2904 6.25 13.6666 6.25V7.75C14.0934 7.75 14.516 7.83406 14.9103 7.99739L15.4844 6.61157ZM22.4166 11C22.4166 9.85093 22.1903 8.71312 21.7506 7.65152L20.3648 8.22554C20.7291 9.10516 20.9166 10.0479 20.9166 11H22.4166ZM21.7506 7.65152C21.3108 6.58992 20.6663 5.62533 19.8538 4.81282L18.7932 5.87348C19.4664 6.5467 20.0004 7.34593 20.3648 8.22554L21.7506 7.65152ZM19.8538 4.81282C19.0413 4.0003 18.0767 3.35578 17.0151 2.91605L16.4411 4.30187C17.3207 4.66622 18.1199 5.20025 18.7932 5.87348L19.8538 4.81282ZM17.0151 2.91605C15.9535 2.47633 14.8157 2.25 13.6666 2.25V3.75C14.6187 3.75 15.5615 3.93753 16.4411 4.30187L17.0151 2.91605Z" fill="white"/>
</svg>