<svg xmlns="http://www.w3.org/2000/svg" width="24" height="25" viewBox="0 0 24 25" fill="none">
  <path fill-rule="evenodd" clip-rule="evenodd" d="M15.2505 5.4999C15.2508 3.42883 16.93 1.75016 19.0011 1.75049C21.0721 1.75081 22.7508 3.43001 22.7505 5.50108C22.7501 7.57215 21.0709 9.25081 18.9999 9.25049L16.75 9.25013V15.7508L18.9999 15.7505C21.0709 15.7502 22.7501 17.4288 22.7505 19.4999C22.7508 21.571 21.0721 23.2502 19.0011 23.2505C16.93 23.2508 15.2508 21.5721 15.2505 19.5011L15.2501 17.25H8.75084L8.75049 19.5011C8.75016 21.5721 7.07097 23.2508 4.9999 23.2505C2.92883 23.2502 1.25016 21.571 1.25049 19.4999C1.25081 17.4288 2.93001 15.7502 5.00108 15.7505L7.25 15.7508V9.25013L5.00108 9.25049C2.93001 9.25081 1.25081 7.57215 1.25049 5.50108C1.25016 3.43001 2.92883 1.75081 4.9999 1.75049C7.07097 1.75016 8.75016 3.42883 8.75049 5.4999L8.75084 7.75H15.2501L15.2505 5.4999ZM7.25084 7.75L7.25049 5.50013C7.25029 4.25749 6.24277 3.25029 5.00013 3.25049C3.75749 3.25068 2.75029 4.2582 2.75049 5.50084C2.75068 6.74348 3.7582 7.75068 5.00084 7.75049L7.25084 7.75ZM19.0008 3.25049C17.7582 3.25029 16.7507 4.25749 16.7505 5.50013L16.7501 7.75013L19.0001 7.75049C20.2428 7.75068 21.2503 6.74348 21.2505 5.50084C21.2507 4.2582 20.2435 3.25068 19.0008 3.25049ZM8.75 9.25V15.75H15.25V9.25H8.75ZM21.2505 19.5001C21.2503 18.2575 20.2428 17.2503 19.0001 17.2505L16.7501 17.2508L16.7505 19.5008C16.7507 20.7435 17.7582 21.7507 19.0008 21.7505C20.2435 21.7503 21.2507 20.7428 21.2505 19.5001ZM2.75049 19.5001C2.75068 18.2575 3.7582 17.2503 5.00084 17.2505L7.25084 17.2508L7.25049 19.5008C7.25029 20.7435 6.24277 21.7507 5.00013 21.7505C3.75749 21.7503 2.75029 20.7428 2.75049 19.5001Z" fill="#6C756F"/>
</svg>