<svg xmlns="http://www.w3.org/2000/svg" width="32" height="32" viewBox="0 0 32 32" fill="none">
  <path fill-rule="evenodd" clip-rule="evenodd" d="M4.6811 6.54813C4.7145 6.51563 4.77465 6.45712 4.83118 6.3936C5.83451 5.39282 6.55547 4.83069 7.10278 4.55076C7.61188 4.29037 7.90381 4.3051 8.14142 4.38409C8.45298 4.48766 8.83052 4.75583 9.402 5.31446C9.67839 5.58464 9.97422 5.89568 10.3156 6.2549L10.323 6.26276L10.323 6.26277C10.6584 6.61568 11.0314 7.00827 11.4467 7.42347C12.1477 8.12456 12.2422 8.58334 12.2335 8.92017C12.2282 9.12608 12.1812 9.35398 12.0917 9.64462C12.047 9.78967 11.9954 9.9393 11.9367 10.1075L11.919 10.1582L11.919 10.1583C11.8666 10.3083 11.809 10.473 11.7546 10.6413C11.6998 10.811 11.6461 10.9903 11.5989 11.1792C11.432 11.847 11.3456 12.6355 11.5706 13.5521C11.8539 14.7066 12.5979 15.9336 14.0017 17.337C15.4055 18.7405 16.6326 19.484 17.787 19.7669C18.963 20.055 19.9278 19.8303 20.6973 19.5811C20.8656 19.5265 21.0302 19.4689 21.1801 19.4163L21.1802 19.4163L21.2309 19.3986C21.3989 19.3397 21.5485 19.288 21.6934 19.2433C21.9839 19.1536 22.2116 19.1065 22.4173 19.101C22.5592 19.0973 22.7228 19.1119 22.9173 19.1826C23.1838 19.2796 23.5081 19.482 23.9135 19.8871C24.3239 20.2974 24.7121 20.6666 25.0616 20.999L25.0618 20.9992L25.0814 21.0179C25.4403 21.3592 25.751 21.6552 26.0207 21.9317C26.5783 22.5034 26.846 22.8817 26.9494 23.1938C27.0284 23.4326 27.0426 23.7252 26.7826 24.2337C26.503 24.7803 25.942 25.4998 24.9436 26.5002C24.8799 26.5569 24.8212 26.6173 24.7887 26.6507L24.7786 26.6611L24.7737 26.6661L24.7735 26.6663C24.7183 26.7228 24.6646 26.7779 24.6009 26.8384C24.4726 26.9605 24.3109 27.0977 24.1047 27.2251C23.706 27.4715 23.0875 27.7155 22.1401 27.6582C20.1851 27.5398 16.6935 26.1248 10.953 20.3857C5.21177 14.6459 3.79477 11.1537 3.67531 9.19785C3.61742 8.25002 3.86113 7.63115 4.10732 7.23221C4.23461 7.02596 4.37167 6.86419 4.49361 6.73584C4.55427 6.67199 4.60943 6.6181 4.66606 6.56278L4.6707 6.55825L4.6811 6.54813ZM11.7669 4.87885L11.7668 4.87874L11.7613 4.87295C11.4278 4.52196 11.1067 4.18399 10.8 3.88426C10.203 3.30061 9.54819 2.74412 8.77233 2.48621C7.92252 2.20371 7.07194 2.32012 6.19206 2.77014C5.35501 3.19826 4.4481 3.94813 3.39148 5.00485C3.37132 5.025 3.35204 5.04601 3.33368 5.06782C3.33308 5.0683 3.33068 5.07071 3.32583 5.07555C3.31718 5.08419 3.30079 5.10056 3.2731 5.12762L3.26413 5.13637C3.20918 5.19004 3.13061 5.26677 3.04361 5.35834C2.85722 5.55454 2.62521 5.82558 2.40533 6.18186C1.95722 6.90798 1.59433 7.93305 1.67903 9.31978C1.84476 12.033 3.7097 15.9723 9.53896 21.8001C15.3675 27.6271 19.3064 29.4903 22.0192 29.6545C23.4057 29.7385 24.4304 29.3749 25.1562 28.9264C25.5123 28.7063 25.7831 28.4741 25.9792 28.2877C26.0705 28.2009 26.147 28.1224 26.2006 28.0675L26.2097 28.0583C26.2367 28.0306 26.253 28.0142 26.2616 28.0056C26.2663 28.0009 26.2687 27.9985 26.2693 27.9979C26.291 27.9796 26.3119 27.9604 26.332 27.9403C27.3866 26.8863 28.1355 25.9808 28.5632 25.1443C29.0128 24.2651 29.1293 23.4149 28.848 22.5653C28.5911 21.789 28.0359 21.1334 27.4524 20.5352C27.1516 20.2269 26.8124 19.904 26.4598 19.5687L26.4457 19.5553C26.093 19.2199 25.72 18.865 25.3272 18.4724C24.3353 17.4811 23.3731 17.0751 22.3646 17.1017C21.8979 17.114 21.4721 17.2185 21.1035 17.3323C20.9189 17.3893 20.7375 17.4523 20.5702 17.5108L20.5587 17.5149L20.5202 17.5284L20.5201 17.5284C20.3672 17.5819 20.2253 17.6316 20.081 17.6784C19.4607 17.8793 18.9149 17.9841 18.263 17.8243C17.5895 17.6593 16.6713 17.1778 15.4157 15.9226C14.1602 14.6675 13.6783 13.7492 13.5129 13.0753C13.4618 12.8672 13.4377 12.6699 13.435 12.4775C13.4292 12.0669 13.5212 11.6788 13.6577 11.2562C13.7044 11.1118 13.754 10.9699 13.8074 10.817L13.8075 10.8168L13.825 10.7667C13.8834 10.5993 13.9463 10.4178 14.0031 10.2331C14.1167 9.86432 14.2208 9.43845 14.2328 8.97169C14.2588 7.96319 13.8524 7.00092 12.8609 6.00923C12.4638 5.61219 12.1055 5.23514 11.7669 4.87885ZM18.1435 3.22295C18.2045 2.67404 18.6989 2.27847 19.2478 2.33943C24.6468 2.939 28.9124 7.19866 29.5178 12.5979C29.5794 13.1467 29.1843 13.6416 28.6355 13.7031C28.0867 13.7646 27.5918 13.3696 27.5303 12.8208C27.0291 8.35065 23.4973 4.82364 19.027 4.32721C18.4781 4.26625 18.0826 3.77186 18.1435 3.22295ZM18.1558 7.86664C18.2611 7.32449 18.7859 6.97036 19.3281 7.07567C22.0901 7.61216 24.2478 9.77201 24.7856 12.5328C24.8912 13.0749 24.5374 13.5999 23.9953 13.7055C23.4532 13.8111 22.9281 13.4573 22.8225 12.9152C22.4403 10.9533 20.9074 9.41982 18.9467 9.03897C18.4046 8.93367 18.0505 8.4088 18.1558 7.86664Z" fill="black"/>
</svg>