<svg xmlns="http://www.w3.org/2000/svg" width="297" height="273" viewBox="0 0 297 273" fill="none">
  <path fill-rule="evenodd" clip-rule="evenodd" d="M154.641 225.259C172.858 238.997 192.443 251.686 205.623 270.733C206.412 271.864 207.964 272.153 209.104 271.371C210.235 270.582 210.524 269.03 209.741 267.89C196.251 248.399 176.294 235.321 157.652 221.266C156.554 220.429 154.978 220.653 154.15 221.757C153.313 222.855 153.543 224.423 154.641 225.259Z" fill="black"/>
  <path fill-rule="evenodd" clip-rule="evenodd" d="M172.272 197.151C181.862 195.977 191.024 196.516 200.063 200.007C201.354 200.507 202.799 199.863 203.301 198.58C203.795 197.29 203.15 195.839 201.867 195.345C192.039 191.547 182.094 190.916 171.67 192.19C170.297 192.354 169.317 193.6 169.489 194.973C169.654 196.34 170.907 197.321 172.272 197.151Z" fill="black"/>
  <path fill-rule="evenodd" clip-rule="evenodd" d="M197.814 127.58C206.975 120.398 217.286 117.034 228.962 117.637C230.339 117.707 231.517 116.648 231.584 115.267C231.659 113.892 230.596 112.714 229.22 112.644C216.296 111.979 204.873 115.692 194.73 123.644C193.641 124.493 193.457 126.072 194.305 127.154C195.16 128.244 196.734 128.435 197.814 127.58Z" fill="black"/>
  <path fill-rule="evenodd" clip-rule="evenodd" d="M115.345 49.7895C112.438 50.5145 109.59 51.4998 106.861 52.7659C105.645 53.329 103.259 54.6669 101.874 56.289C100.393 58.0124 99.9054 60.0133 100.928 61.9846C102.288 64.6012 104.076 65.7119 105.863 66C107.582 66.2792 109.461 65.7523 111.277 64.5414C114.746 62.226 118.043 57.2501 119.4 54.035C122.327 53.5052 125.301 53.2537 128.279 53.2702C150.462 53.394 169.283 72.7076 174.713 100.196C176.612 109.819 171.192 123.282 163.782 136.689C152.247 157.565 135.54 178.139 130.844 184.31C129.688 185.837 129.173 186.865 129.122 187.107C128.853 188.288 129.359 189.008 129.766 189.435C130.362 190.046 130.999 190.307 131.601 190.394C132.418 190.507 133.3 190.307 134.135 189.623C134.593 189.242 135.092 188.614 135.574 187.907C135.904 187.413 136.184 186.817 136.529 186.541C138.749 184.784 141.062 183.171 143.369 181.532C151.108 176.007 159.248 171.467 167.74 167.191C194.721 153.604 222.211 138.517 252.76 135.329C254.13 135.186 255.133 133.959 254.987 132.584C254.849 131.215 253.619 130.218 252.24 130.356C221.082 133.603 193.008 148.87 165.491 162.725C158.268 166.363 151.292 170.19 144.594 174.623C152.566 164.002 163.184 149.003 170.684 134.373C177.355 121.362 181.462 108.581 179.616 99.2266C173.669 69.1137 152.601 48.4017 128.307 48.2712C125.708 48.2582 123.102 48.4255 120.529 48.788C123.012 27.5278 109.344 8.4928 88.1799 4.33901C86.822 4.0705 85.5103 4.95608 85.2423 6.30815C84.9823 7.66604 85.8623 8.97864 87.2201 9.24715C106.291 12.9906 118.389 30.5265 115.345 49.7895ZM112.87 55.7292C111.545 56.1869 110.245 56.7138 108.961 57.3023C108.277 57.6214 107.02 58.2766 106.079 59.1254C105.861 59.3261 105.589 59.6892 105.466 59.8599C105.829 60.5383 106.172 60.9862 106.659 61.063C107.264 61.1624 107.865 60.8054 108.501 60.3817C110.099 59.3199 111.663 57.5155 112.87 55.7292Z" fill="black"/>
</svg>