<svg xmlns="http://www.w3.org/2000/svg" width="38" height="39" viewBox="0 0 38 39" fill="none">
  <path fill-rule="evenodd" clip-rule="evenodd" d="M19.865 35.2801C14.9739 34.0772 10.2638 34.156 5.30276 34.0118C4.33389 33.9838 3.5284 34.7449 3.49921 35.7108C3.47003 36.6774 4.23465 37.484 5.20352 37.5126C9.90779 37.6492 14.3844 37.5388 19.0303 38.6805C19.97 38.9116 20.9214 38.3367 21.149 37.3982C21.3825 36.4602 20.8047 35.5106 19.865 35.2801Z" fill="#3D73FF"/>
  <path fill-rule="evenodd" clip-rule="evenodd" d="M29.3436 25.0603C21.8844 16.8996 12.2891 9.21047 2.60044 3.83615C1.75414 3.36748 0.685999 3.67275 0.219072 4.51788C-0.247852 5.36302 0.0556754 6.42993 0.901977 6.89861C10.2697 12.0955 19.5498 19.5318 26.758 27.4229C27.4117 28.1361 28.5206 28.1857 29.2327 27.5338C29.9448 26.8818 29.9973 25.7735 29.3436 25.0603Z" fill="#3D73FF"/>
  <path fill-rule="evenodd" clip-rule="evenodd" d="M37.4914 22.993C38.7229 15.5292 36.6218 7.836 33.651 1.04924C33.2599 0.163832 32.2269 -0.240071 31.3455 0.146894C30.4584 0.534442 30.0556 1.56811 30.4409 2.45352C33.149 8.63445 35.1568 15.6249 34.0362 22.4228C33.8786 23.3764 34.5265 24.2782 35.4778 24.4352C36.4292 24.5928 37.3338 23.9461 37.4914 22.993Z" fill="#3D73FF"/>
</svg>