<svg xmlns="http://www.w3.org/2000/svg" width="189" height="136" viewBox="0 0 189 136" fill="none">
  <g clip-path="url(#clip0_29_6488)">
    <path d="M188.468 123.241C183.26 124.223 178.052 125.205 171.868 126.35C172.681 124.223 173.17 122.75 173.983 121.278C189.933 90.0234 184.888 56.642 160.475 31.2787C144.688 15.0789 125.157 6.73357 103.348 2.1518C78.9354 -2.92086 55.6617 1.33363 33.2017 11.1517C21.6462 16.2244 12.6948 24.5697 5.04536 34.3878C3.09233 37.0059 1.30203 39.6241 0 43.224C1.62753 42.2422 3.58055 41.424 4.55708 39.9513C29.7839 4.76995 89.5144 -3.5754 132.644 19.497C149.57 28.4969 162.265 41.7513 169.915 59.4238C178.866 80.2054 175.123 107.532 160.8 124.55C157.871 117.187 160.475 107.696 152.174 101.805C152.5 112.278 152.663 121.769 152.988 131.096C153.151 134.205 154.778 136.659 157.708 135.841C167.799 133.223 177.727 130.277 187.492 127.168C188.143 127.005 188.468 125.532 188.957 124.714C189.119 124.387 188.794 123.732 188.468 123.241Z" fill="#3D73FF"/>
  </g>
  <defs>
    <clipPath id="clip0_29_6488">
      <rect width="189" height="136" fill="white" transform="matrix(-1 0 0 1 189 0)"/>
    </clipPath>
  </defs>
</svg>