<svg xmlns="http://www.w3.org/2000/svg" width="155" height="155" viewBox="0 0 155 155" fill="none">
  <path fill-rule="evenodd" clip-rule="evenodd" d="M19.3751 25.8333H64.5834C67.8955 25.8333 70.6252 28.3264 70.9983 31.5384L71.0417 32.2916V83.9583C71.0417 84.421 70.992 84.8818 70.8938 85.3326L70.7103 86.0006L57.7937 124.751C56.9945 127.148 54.8822 128.836 52.4162 129.123L51.6667 129.167H25.8334C21.6845 129.167 18.6832 125.341 19.5066 121.404L19.7065 120.666L29.7896 90.4166H19.3751C16.063 90.4166 13.3333 87.9234 12.9602 84.7114L12.9167 83.9583V32.2916C12.9167 28.9795 15.4099 26.2498 18.6219 25.8767L19.3751 25.8333H64.5834H19.3751ZM90.4167 25.8333H135.625C138.937 25.8333 141.667 28.3264 142.04 31.5384L142.083 32.2916V83.9583C142.083 84.421 142.034 84.8818 141.935 85.3326L141.752 86.0006L128.835 124.751C128.036 127.148 125.924 128.836 123.458 129.123L122.708 129.167H96.8751C92.7262 129.167 89.7249 125.341 90.5483 121.404L90.7482 120.666L100.831 90.4166H90.4167C87.1047 90.4166 84.3749 87.9234 84.0019 84.7114L83.9584 83.9583V32.2916C83.9584 28.9795 86.4516 26.2498 89.6636 25.8767L90.4167 25.8333H135.625H90.4167Z" fill="#7DFF85"/>
</svg>