<svg xmlns="http://www.w3.org/2000/svg" width="38" height="39" viewBox="0 0 38 39" fill="none">
  <path fill-rule="evenodd" clip-rule="evenodd" d="M19.865 35.28C14.9739 34.0771 10.2638 34.1559 5.30276 34.0117C4.33389 33.9837 3.5284 34.7448 3.49921 35.7108C3.47003 36.6773 4.23465 37.4839 5.20352 37.5125C9.90779 37.6491 14.3844 37.5388 19.0303 38.6804C19.97 38.9115 20.9214 38.3366 21.149 37.3981C21.3825 36.4602 20.8047 35.5106 19.865 35.28Z" fill="black"/>
  <path fill-rule="evenodd" clip-rule="evenodd" d="M29.3436 25.0602C21.8844 16.8995 12.2891 9.21037 2.60044 3.83606C1.75414 3.36738 0.685999 3.67265 0.219072 4.51779C-0.247852 5.36292 0.0556754 6.42984 0.901977 6.89851C10.2697 12.0954 19.5498 19.5318 26.758 27.4228C27.4117 28.136 28.5206 28.1856 29.2327 27.5337C29.9448 26.8817 29.9973 25.7734 29.3436 25.0602Z" fill="black"/>
  <path fill-rule="evenodd" clip-rule="evenodd" d="M37.4914 22.993C38.7229 15.5292 36.6218 7.836 33.651 1.04924C33.2599 0.163832 32.2269 -0.240071 31.3455 0.146894C30.4584 0.534442 30.0556 1.56811 30.4409 2.45352C33.149 8.63445 35.1568 15.6249 34.0362 22.4228C33.8786 23.3764 34.5265 24.2782 35.4778 24.4352C36.4292 24.5928 37.3338 23.9461 37.4914 22.993Z" fill="black"/>
</svg>