<svg xmlns="http://www.w3.org/2000/svg" width="182" height="136" viewBox="0 0 182 136" fill="none">
  <g clip-path="url(#clip0_33_6891)">
    <path d="M0.689415 29.3042C4.34456 28.074 7.89905 26.2192 11.6213 25.4054C46.8584 18.2289 82.2751 16.1506 117.749 22.3946C128.995 24.4268 140.234 27.742 150.772 32.0246C162.178 36.3809 172.11 43.5385 173.215 57.0326C174.32 70.5267 164.894 78.4553 154.883 85.4101C142.745 93.776 128.992 98.7704 115.106 102.932C112.043 103.853 108.772 104.808 105.56 107.462C112.983 109.683 120.197 111.938 128.071 114.3C125.471 119.419 121.514 118.776 118.7 118.588C102.864 117.296 86.994 115.796 71.2655 113.845C64.2863 113.048 62.6125 107.977 67.1911 103.18C78.0585 92.2417 91.1994 84.7824 106.062 80.0362C106.48 79.9689 107.206 80.4927 108.35 80.9491C109.101 89.5869 98.7158 88.9113 95.5497 95.8307C117.015 90.8745 136.852 85.1127 153.778 71.916C155.872 70.2966 157.69 68.2945 159.266 66.1178C163.643 60.0713 163.605 54.5231 157.549 50.1587C150.767 45.2705 143.217 40.9334 135.485 38.121C117.073 31.4762 97.8377 29.0229 78.5548 28.9273C56.9431 28.9936 35.3578 30.551 13.6717 31.4837C9.84874 31.6728 5.85063 32.1038 1.81897 32.3266C1.47604 31.5273 1.09949 30.5199 0.689415 29.3042Z" fill="#3D73FF"/>
  </g>
  <defs>
    <clipPath id="clip0_33_6891">
      <rect width="110" height="166" fill="white" transform="translate(164.188 0.490234) rotate(80.8413)"/>
    </clipPath>
  </defs>
</svg>