<svg xmlns="http://www.w3.org/2000/svg" width="24" height="24" viewBox="0 0 24 24" fill="none">
  <path fill-rule="evenodd" clip-rule="evenodd" d="M14.6953 4.58014H9.2951C9.46238 3.95815 10.0307 3.49976 10.7052 3.49976H13.2852C13.9597 3.49976 14.528 3.95815 14.6953 4.58014ZM18.19 4.58014H16.221C16.0346 3.12507 14.7908 1.99976 13.2852 1.99976H10.7052C9.19958 1.99976 7.95577 3.12507 7.76932 4.58014H5.81C3.70899 4.58014 2 6.27273 2 8.38014V11.8301C2 12.0965 2.14126 12.3428 2.37112 12.4774C4.78265 13.889 7.87614 14.7647 11.2452 14.8777V16.6768C11.2452 17.091 11.581 17.4268 11.9952 17.4268C12.4094 17.4268 12.7452 17.091 12.7452 16.6768V14.8773C16.1111 14.7629 19.2095 13.8878 21.6189 12.4774C21.8487 12.3428 21.99 12.0965 21.99 11.8301V8.39014C21.99 6.28913 20.2974 4.58014 18.19 4.58014ZM3.5 8.38014C3.5 7.10755 4.53101 6.08014 5.81 6.08014H18.19C19.4626 6.08014 20.49 7.11115 20.49 8.39014V11.3921C18.2104 12.6296 15.2522 13.3857 12.0183 13.3901C12.0106 13.3899 12.0029 13.3898 11.9952 13.3898L11.9858 13.3898L11.9717 13.3901C8.7343 13.3873 5.78125 12.6311 3.5 11.3921V8.38014ZM3.52239 15.4266C3.49128 15.0136 3.13122 14.7039 2.71817 14.7351C2.30513 14.7662 1.99552 15.1262 2.02663 15.5393L2.21565 18.0486C2.37323 20.1304 4.10794 21.7399 6.19551 21.7399H17.7945C19.8821 21.7399 21.6168 20.1301 21.7744 18.0483L21.9634 15.5393C21.9945 15.1262 21.6849 14.7662 21.2718 14.7351C20.8588 14.7039 20.4987 15.0136 20.4676 15.4266L20.2786 17.9356C20.1801 19.2357 19.0968 20.2399 17.7945 20.2399H6.19551C4.89317 20.2399 3.80992 19.2354 3.71137 17.9353L3.52239 15.4266Z" fill="black"/>
</svg>