<svg xmlns="http://www.w3.org/2000/svg" width="173" height="202" viewBox="0 0 173 202" fill="none">
  <g clip-path="url(#clip0_29_6486)">
    <path d="M109.883 186.977C111.071 186.829 111.517 186.977 111.962 186.829C139.136 170.45 157.549 147.222 164.528 115.954C166.31 108.063 166.013 99.8735 163.934 91.8331C159.628 74.5612 145.224 62.6496 127.554 61.6073C118.347 61.0118 109.438 62.054 101.419 67.1165C100.825 71.4344 100.38 75.7524 99.4891 79.7726C98.0042 86.324 94.5889 91.6842 88.5007 94.96C84.046 97.4912 79.5913 97.4912 77.2154 95.1088C74.0971 91.982 74.0971 87.813 76.0275 84.3884C78.7003 79.6237 81.9671 75.1568 85.3824 70.9878C87.6098 68.3076 90.5796 66.0742 93.2524 63.8408C90.7281 47.0156 74.8396 39.8686 55.8327 46.8667C55.2387 49.249 54.6447 51.7802 53.9023 54.1626C50.9324 62.9474 45.4383 69.6477 36.5288 72.7745C33.1135 73.9657 29.4012 74.4124 26.4314 71.2856C24.204 68.9032 24.2041 64.7341 26.5799 60.5651C30.4407 54.0137 36.2318 49.3979 42.4685 45.3777C44.6958 44.0377 46.9232 42.6976 49.1506 41.5064C46.1808 15.4497 22.8676 -3.01333 0 7.40936C0.148491 5.47372 -9.07203e-06 3.83587 0.593956 2.94249C1.33641 1.90022 2.96981 1.30464 4.30623 1.00685C16.928 -1.37548 28.6588 0.113477 38.3107 9.345C45.5868 16.1942 50.487 24.5324 53.7538 34.0617C54.1993 35.4017 54.6448 36.7418 55.2387 38.0818C55.2387 38.2307 55.5357 38.3796 56.1296 38.8263C57.4661 38.6774 59.0995 38.6774 60.7329 38.3796C80.6307 35.2528 91.0251 40.6131 100.232 59.225C102.013 58.6294 104.092 58.0338 106.023 57.2894C117.456 53.4181 128.89 53.1203 140.473 56.9916C159.331 63.2452 171.507 79.4748 172.844 100.022C173.586 111.19 171.656 121.91 167.646 132.333C157.846 157.496 141.809 177.299 117.753 190.253C116.566 190.998 115.229 191.593 114.041 192.338C113.893 192.487 113.744 192.784 113.299 193.678C118.347 194.869 123.099 194.422 127.851 194.124C132.454 193.975 137.206 193.529 142.255 193.231C141.809 197.102 139.73 198.591 137.206 199.485C134.236 200.378 131.266 201.569 128.296 201.718C120.278 202.016 112.111 202.165 103.944 201.718C97.5587 201.271 95.7768 197.847 98.5981 192.635C104.686 181.617 110.923 170.599 117.16 159.581C118.199 157.794 119.535 156.305 121.169 154.22C123.99 157.496 122.802 159.878 121.763 162.112C117.605 170.152 113.893 178.193 109.883 186.977ZM30.8861 66.8187C41.132 65.4786 47.5172 58.9272 47.9626 49.6957C41.132 54.1626 34.5984 58.1827 30.8861 66.8187ZM81.0762 89.8975C89.8372 87.813 93.9949 81.8571 93.104 72.7745C87.4613 77.5392 82.5611 82.006 81.0762 89.8975Z" fill="#3D73FF"/>
  </g>
  <defs>
    <clipPath id="clip0_29_6486">
      <rect width="173" height="202" fill="white"/>
    </clipPath>
  </defs>
</svg>