<svg xmlns="http://www.w3.org/2000/svg" width="91" height="101" viewBox="0 0 91 101" fill="none">
  <g clip-path="url(#clip0_41_308)">
    <path d="M18.4401 79.9579C35.9737 68.7906 53.6653 57.6233 71.199 46.456C71.041 45.9841 70.7251 45.355 70.5671 44.8831C63.3009 46.1414 55.8768 47.3997 48.6106 48.5007C44.3457 49.1299 40.0807 49.6017 35.8158 49.4444C26.97 49.1298 23.8108 42.9957 28.3916 35.446C29.9712 32.9294 31.8668 30.2556 34.0782 28.3681C44.9775 19.2456 56.0347 10.4376 66.934 1.47229C67.7238 0.84315 68.6716 0.214017 69.6194 0.0567311C70.4092 -0.100555 71.8308 0.0567215 72.3047 0.685864C72.9366 1.62958 73.4104 3.35973 72.7786 3.98887C71.041 6.19087 69.1455 8.07833 67.092 9.96575C58.5621 17.3582 49.7163 24.7506 41.1864 32.3003C38.6591 34.5023 36.6056 37.4907 33.2884 41.4229C37.5533 41.4229 40.0807 41.7374 42.6081 41.4229C53.8233 39.5354 65.0385 37.3334 76.2537 35.446C78.7811 34.9741 81.3085 34.345 83.8358 34.8169C86.0473 35.1314 88.8906 36.2324 90.1543 37.9626C92.0498 40.4791 90.4702 43.3103 88.2587 45.355C86.2053 47.2424 84.1518 49.1299 81.7824 50.7027C67.7238 59.8253 53.8233 68.7906 39.7648 77.9131C37.5533 79.3287 35.3419 80.9015 31.7088 83.2608C41.1864 83.4181 48.2947 78.0704 57.9303 81.2161C55.4029 83.5754 53.9813 85.3056 52.2437 86.2493C38.3431 93.0126 23.4948 97.5738 8.3306 100.72C2.01217 102.135 -1.46296 98.0457 0.590525 91.7543C1.53829 88.9231 2.80198 86.092 4.69751 83.7327C9.75225 77.1267 14.965 70.678 20.3356 64.2293C21.2834 63.1283 23.4948 62.1846 24.6006 62.4991C26.97 63.4429 26.6541 65.8021 25.5483 67.6896C23.1789 71.779 20.4936 75.8684 17.9662 79.8006C17.9662 79.486 18.2821 79.8006 18.4401 79.9579Z" fill="#3D73FF"/>
  </g>
  <defs>
    <clipPath id="clip0_41_308">
      <rect width="91" height="101" fill="white"/>
    </clipPath>
  </defs>
</svg>