<svg xmlns="http://www.w3.org/2000/svg" width="25" height="24" viewBox="0 0 25 24" fill="none">
  <path d="M8.96455 10.4344C8.38993 9.2874 7.20361 8.5 5.83337 8.5C3.90038 8.5 2.33337 10.067 2.33337 12C2.33337 13.933 3.90038 15.5 5.83337 15.5C7.20361 15.5 8.38993 14.7126 8.96455 13.5656M8.96455 10.4344C9.20055 10.9055 9.33337 11.4372 9.33337 12C9.33337 12.5628 9.20055 13.0945 8.96455 13.5656M8.96455 10.4344L15.7022 7.06559M8.96455 13.5656L15.7022 16.9344M15.7022 7.06559C16.2768 8.2126 17.4631 9 18.8334 9C20.7664 9 22.3334 7.433 22.3334 5.5C22.3334 3.567 20.7664 2 18.8334 2C16.9004 2 15.3334 3.567 15.3334 5.5C15.3334 6.06276 15.4662 6.59451 15.7022 7.06559ZM15.7022 16.9344C15.4662 17.4055 15.3334 17.9372 15.3334 18.5C15.3334 20.433 16.9004 22 18.8334 22C20.7664 22 22.3334 20.433 22.3334 18.5C22.3334 16.567 20.7664 15 18.8334 15C17.4631 15 16.2768 15.7874 15.7022 16.9344Z" stroke="white" stroke-width="1.5" stroke-linecap="round"/>
</svg>