<svg width="91" height="26" viewBox="0 0 91 26" fill="none" xmlns="http://www.w3.org/2000/svg">
<g id="Wordmark " clip-path="url(#clip0_75_659)">
<g id="Layer 2">
<g id="Layer 1">
<path id="Vector" d="M21.3354 5.25732L13.2915 25.4296H8.23943L0 5.25732H3.45534C4.15436 5.25726 4.83649 5.47129 5.40931 5.87041C5.98212 6.26953 6.41792 6.83444 6.65764 7.48858L10.7957 18.7729L14.8539 7.50637C15.0909 6.84819 15.5262 6.27895 16.1001 5.87642C16.6741 5.47388 17.3587 5.25767 18.0607 5.25732H21.3354Z" fill="white"/>
<path id="Vector_2" d="M22.1992 15.3436C22.1992 9.22367 26.8727 4.68652 33.1453 4.68652C39.3866 4.68652 44.0908 9.23059 44.0908 15.3436C44.0908 21.4234 39.3866 26.0001 33.1453 26.0001C26.8727 26.0001 22.1992 21.4259 22.1992 15.3436ZM38.5416 15.3436C38.5416 12.0768 36.3014 9.81485 33.1453 9.81485C29.9891 9.81485 27.7489 12.0768 27.7489 15.3436C27.7489 18.6104 29.9886 20.8723 33.1443 20.8723C36.2999 20.8723 38.5416 18.6109 38.5416 15.3436Z" fill="white"/>
<path id="Vector_3" d="M65.9095 26.0001C60.8272 26.0001 57.4319 23.1104 57.4041 18.7868H62.7424C62.7697 20.5836 64.1506 21.4797 66.1164 21.4797C67.6367 21.4797 68.9942 20.7942 68.9942 19.4457C68.9942 18.0671 67.2387 17.6494 65.0978 17.2931C61.8627 16.7567 57.748 15.8942 57.748 11.1396C57.748 7.3226 61.0068 4.6875 65.8951 4.6875C70.7834 4.6875 73.9916 7.39773 74.012 11.4287H68.8191C68.7987 9.82571 67.6704 9.03434 65.7611 9.03434C64.0573 9.03434 63.0515 9.81237 63.0515 10.9665C63.0515 12.3115 64.7797 12.6239 66.883 13.004C70.186 13.5972 74.403 14.2892 74.403 19.2055C74.403 23.3215 71.025 26.0011 65.9115 26.0011L65.9095 26.0001Z" fill="white"/>
<path id="Vector_4" d="M90.601 23.052V25.4291H86.7115C82.2559 25.4291 79.517 22.7021 79.517 18.2262V10.832H79.2645C78.3604 10.832 77.4934 10.4742 76.8542 9.8374C76.2149 9.20056 75.8558 8.33682 75.8558 7.4362V6.4476H79.517V4.70719C79.5175 4.06075 79.7032 3.42789 80.0524 2.883C80.4015 2.3381 80.8995 1.90381 81.4878 1.63118L84.9943 0V6.4481H90.4894V10.832H84.9943V17.505C84.9943 19.454 86.1196 20.5746 88.1137 20.5746C88.7732 20.5749 89.4056 20.8359 89.872 21.3005C90.3384 21.765 90.6006 22.395 90.601 23.052Z" fill="white"/>
<path id="Vector_5" d="M51.4927 11.6729H54.5789L49.5676 25.4291H44.0908L48.2884 13.912C48.527 13.2561 48.9625 12.6892 49.5358 12.2886C50.1091 11.888 50.7924 11.673 51.4927 11.6729Z" fill="white"/>
<path id="Vector_6" d="M57.4041 3.91284L56.3721 6.74566C56.1331 7.40118 55.6975 7.96755 55.1242 8.3678C54.5509 8.76806 53.8678 8.9828 53.1678 8.98284H50.0821L51.9298 3.91284H57.4041Z" fill="white"/>
</g>
</g>
</g>
<defs>
<clipPath id="clip0_75_659">
<rect width="91" height="26" fill="white"/>
</clipPath>
</defs>
</svg>
