<svg xmlns="http://www.w3.org/2000/svg" width="40" height="40" viewBox="0 0 40 40" fill="none">
  <rect width="40" height="40" rx="12" fill="#1D2B21"/>
  <mask id="path-2-outside-1_848_743" maskUnits="userSpaceOnUse" x="7" y="12.3853" width="25" height="16" fill="black">
    <rect fill="white" x="7" y="12.3853" width="25" height="16"/>
    <path d="M30.9764 24.9286C30.962 24.8858 30.9688 24.856 30.9799 24.8066C31.0016 24.7094 31.0317 24.5763 30.8829 24.3078C30.7341 24.0392 30.6138 23.5737 30.5263 23.2349C30.493 23.1062 30.4642 22.9951 30.4398 22.9174C30.3461 22.6193 30.196 21.88 30.1599 21.1687C30.1453 20.8874 30.1152 20.5663 30.0838 20.2262C30.0326 19.6756 29.9754 19.0515 29.9754 18.4938C29.9754 18.0332 29.942 17.6034 29.9098 17.1882C29.8784 16.7818 29.8486 16.3983 29.8486 15.9943C29.8486 15.6455 29.845 15.3843 29.8426 15.1938C29.8391 14.9383 29.8372 14.7979 29.8475 14.7372C29.8534 14.7017 29.8813 14.664 29.9109 14.6239C29.9551 14.5646 30.0049 14.4974 30.0049 14.4071C30.0049 14.2502 29.8318 14.0093 29.7792 13.9578C29.7705 13.9494 29.7627 13.9408 29.7551 13.9307C29.7177 13.8893 29.6665 13.8324 29.5686 13.8324C29.5438 13.8325 29.519 13.8357 29.4949 13.8419C29.4047 13.8641 29.3594 13.9232 29.2974 14.0077C29.2186 14.116 29.1288 14.2159 29.0294 14.3058C28.921 14.4063 28.6953 14.6507 28.4113 14.9602C27.9121 15.5041 27.2284 16.249 26.7041 16.7175C26.6038 16.8067 26.5076 16.8948 26.4139 16.9817C26.383 16.9589 26.3507 16.9382 26.3171 16.9197C26.1301 16.82 25.4678 16.2151 24.8709 15.5997C24.5338 15.2518 24.1314 14.9312 23.8081 14.6735C23.6105 14.5161 23.4401 14.3803 23.3626 14.2977C23.1629 14.0844 22.8388 13.8256 22.6786 13.7061C22.6052 13.6519 22.5949 13.6308 22.5789 13.5993C22.5635 13.5669 22.5444 13.5364 22.522 13.5083C22.4553 13.4237 22.3052 13.3853 22.1938 13.3853C22.0919 13.3853 22.0139 13.4167 21.9743 13.4736C21.9485 13.5117 21.9251 13.5513 21.9042 13.5923C21.8661 13.6686 21.819 13.74 21.7638 13.805C21.7096 13.8695 21.5893 13.9635 21.4733 14.0546C21.3435 14.1567 21.2091 14.2624 21.13 14.3527L21.0999 14.3865C20.9389 14.5692 20.6392 14.9093 20.5118 15.0412C20.445 15.1137 20.3844 15.1918 20.3308 15.2745C20.2761 15.3578 20.2155 15.4369 20.1493 15.5114C20.0831 15.5835 19.9867 15.652 19.8764 15.7314C19.7134 15.8423 19.5604 15.9672 19.419 16.1046C19.2911 16.2325 19.0792 16.4222 18.874 16.6056C18.6101 16.8419 18.3605 17.0663 18.2578 17.1831C18.1857 17.266 17.9803 17.4541 17.763 17.6522C17.3622 18.0182 17.0953 18.2659 17.0416 18.3667C17.0253 18.3978 17.0013 18.4242 16.9721 18.4436C16.9428 18.4629 16.9091 18.4746 16.8742 18.4776C16.7742 18.3949 16.6739 18.3115 16.5761 18.2307C16.3352 18.0304 16.1078 17.841 15.9303 17.7001C15.6111 17.4467 15.1174 17.0191 14.7215 16.6758C14.5047 16.4861 14.315 16.3235 14.2188 16.2444L14.131 16.1758C13.8635 15.9558 13.3652 15.5463 13.2966 15.4621C13.2625 15.4218 13.2223 15.3872 13.1774 15.3594C13.1335 15.3298 13.1316 15.3258 13.1316 15.316C13.1316 15.1789 12.9552 15.0469 12.7541 15.0334C12.7471 15.0334 12.7403 15.0334 12.7335 15.0334C12.6862 15.0339 12.6397 15.0453 12.5974 15.0665C12.5551 15.0878 12.5183 15.1185 12.4897 15.1561C12.4337 15.2269 12.4029 15.3144 12.4021 15.4046C12.4021 15.4659 12.3767 15.5453 12.352 15.6214C12.3249 15.7092 12.2948 15.8 12.2948 15.8853C12.2948 16.0195 12.1935 17.0747 12.1553 17.4719L12.1485 17.5416C12.1162 17.8792 11.978 18.8106 11.8537 19.4051C11.8095 19.616 11.7699 19.7729 11.735 19.9111C11.6729 20.1566 11.6282 20.3341 11.6111 20.611C11.5998 20.7953 11.5358 21.043 11.4678 21.3053C11.3846 21.6275 11.2984 21.9608 11.2984 22.2228C11.2984 22.7407 11.2673 23.1233 11.2383 23.181C11.2211 23.2037 11.2025 23.2253 11.1824 23.2455C11.0955 23.3385 10.9499 23.4937 10.9499 23.7002C10.9499 23.8704 10.9984 23.9441 11.0337 23.9961C11.0512 24.0177 11.0631 24.0433 11.0681 24.0707C11.0697 24.0823 11.0705 24.0899 11.0708 24.0948C11.0453 24.1219 11.0166 24.1622 10.9895 24.2671C10.9565 24.3914 10.9344 24.5184 10.9234 24.6465C10.9212 24.6668 10.919 24.6871 10.9166 24.708C10.9101 24.7649 10.8711 25.0318 10.8299 25.3145C10.7914 25.5768 10.7486 25.8654 10.7245 26.044C9.98876 26.2483 9.29125 26.4732 9.03057 26.5959C8.90715 26.6534 8.78047 26.7035 8.65119 26.7461C8.42112 26.8252 8.25474 26.8816 8.23279 27.1352C8.22087 27.2707 8.13795 27.3585 8.07752 27.4224C8.02955 27.4731 7.98837 27.5167 8.003 27.5769C8.00839 27.5961 8.01873 27.6136 8.033 27.6276C8.04727 27.6416 8.06495 27.6516 8.08429 27.6566C8.10243 27.6628 8.12149 27.6659 8.14066 27.6658C8.22791 27.6658 8.31436 27.6064 8.44497 27.5162C8.61619 27.3924 8.79982 27.2867 8.9929 27.2008C9.34328 27.049 10.1923 26.8138 10.812 26.642C11.0814 26.5675 11.3139 26.503 11.4499 26.461C11.8889 26.3255 13.9652 25.9041 14.7659 25.7887C15.5439 25.6765 18.5348 25.2676 19.2976 25.2286C19.968 25.1941 20.7912 25.1221 21.0619 25.0985L21.1508 25.0906H21.1657C21.183 25.0905 21.2 25.0949 21.215 25.1034C21.2521 25.122 21.2931 25.1313 21.3345 25.1305C21.3825 25.1291 21.4301 25.1219 21.4763 25.1091C21.686 25.0549 21.7635 25.0489 22.0521 25.0253L22.0738 25.0237C22.2746 25.0072 22.848 24.989 23.3504 24.989C23.6273 24.989 23.8552 24.9944 24.0097 25.0047C24.0948 25.0107 24.1858 25.0134 24.2807 25.0134C24.5788 25.0134 24.8869 24.9863 25.1836 24.9573C25.3191 24.9448 25.4611 24.9302 25.5966 24.9218C25.931 24.898 26.4499 24.8749 26.9515 24.8527C27.2208 24.8408 27.4861 24.8291 27.7176 24.8172C27.9685 24.8047 28.1809 24.7882 28.3679 24.7736C28.6186 24.7541 28.8354 24.737 29.0508 24.737C29.1009 24.737 29.1489 24.737 29.1971 24.7397C29.2134 24.7397 29.2291 24.7397 29.2443 24.7397C29.3995 24.7397 29.505 24.7072 29.5665 24.6405C29.6367 24.5644 29.6288 24.4693 29.6234 24.4061C29.6219 24.3924 29.6213 24.3787 29.6215 24.3649C29.625 24.3126 29.6234 24.2365 29.5697 24.179C29.5296 24.1362 29.4695 24.1143 29.3914 24.1143C29.3312 24.1157 29.2713 24.1248 29.2134 24.1414C28.9175 24.2178 27.7747 24.3175 26.949 24.3389C26.6016 24.3479 26.2364 24.372 25.8499 24.3975C25.2928 24.4343 24.7167 24.4723 24.0988 24.4728C23.4572 24.4728 22.5759 24.5153 21.7635 24.5611C21.7605 24.5113 21.7565 24.4527 21.7519 24.3826C21.7318 24.0861 21.7069 23.7173 21.7202 23.53C21.7329 23.3534 21.7096 23.1179 21.6871 22.8897C21.6654 22.6729 21.6451 22.4662 21.66 22.3542C21.689 22.1486 22.0741 21.6676 22.4526 21.3643C22.6423 21.2129 22.9675 20.9012 23.3103 20.5715C23.6485 20.2463 23.9983 19.9111 24.2465 19.7011C24.7557 19.2707 25.5494 18.5044 25.6982 18.3461C25.8066 18.2307 26.1353 17.9538 26.3312 17.7882L26.4152 17.7169C26.8388 18.0784 27.3832 18.5215 27.6292 18.7019C27.9097 18.9079 28.5297 19.5371 28.94 19.9533C29.0549 20.0701 29.1543 20.1701 29.2226 20.2384C29.3233 20.3418 29.4081 20.4595 29.4743 20.5877C29.4943 20.6255 29.517 20.6617 29.5424 20.6961C29.56 20.901 29.5781 21.0836 29.5965 21.2164C29.615 21.3492 29.6274 21.5082 29.6407 21.6749C29.6738 22.0881 29.7112 22.5567 29.851 22.8886C30.0504 23.3623 30.1204 23.6268 30.1382 23.9764C30.1559 24.3213 30.1854 24.3728 30.2407 24.4405L30.2553 24.4592C30.2702 24.4807 30.2957 24.5782 30.3144 24.6489C30.3455 24.7676 30.3778 24.8904 30.4228 24.9665C30.4402 25.0028 30.4528 25.0413 30.4602 25.0809C30.4873 25.199 30.5276 25.3605 30.7414 25.4061C30.7533 25.4085 30.7654 25.4098 30.7775 25.4099C30.8079 25.4089 30.8377 25.4005 30.8642 25.3854C30.8907 25.3703 30.9131 25.3491 30.9295 25.3234C31.0011 25.2267 31.0208 25.0595 30.9764 24.9286ZM16.3639 19.0084C16.2425 19.1314 15.1288 20.1409 14.8581 20.3837C14.7835 20.4506 14.6524 20.5804 14.4865 20.7446C14.0378 21.1888 13.3595 21.86 12.9988 22.0811C12.7089 22.2586 12.213 22.6884 11.8355 23.0295C11.8764 22.7122 11.9103 22.4117 11.9184 22.3052C11.9301 22.1567 11.9883 21.8773 12.0623 21.524C12.1396 21.1551 12.2355 20.6961 12.3084 20.2327C12.3626 19.8837 12.4265 19.5553 12.4878 19.2388C12.5837 18.7404 12.6742 18.2697 12.7192 17.789C12.7476 17.4863 12.7785 17.276 12.8081 17.0725C12.871 16.6664 12.9111 16.2572 12.9284 15.8466C12.9774 15.8517 13.0766 15.8943 13.1671 15.9964C13.2628 16.1048 13.5736 16.3726 14.0072 16.7441C14.3204 17.0134 14.7104 17.3489 15.1133 17.7058C15.5507 18.0933 16.0431 18.4841 16.5111 18.8439C16.4663 18.9025 16.4171 18.9575 16.3639 19.0084ZM11.5217 24.824L11.5288 24.7749C11.5911 24.337 11.6323 24.0479 11.6759 23.969C11.688 23.9417 11.6971 23.913 11.703 23.8837C11.7634 23.8368 11.8325 23.7775 11.9125 23.7073C11.9743 23.6531 12.0328 23.6019 12.0799 23.5653C12.2932 23.4008 13.1777 22.6981 13.3563 22.525C13.4213 22.4621 13.5763 22.3421 13.756 22.203C14.0465 21.9781 14.4082 21.6985 14.596 21.4985C14.9114 21.163 15.7401 20.3417 15.9187 20.2181C16.0398 20.1346 16.3019 19.8815 16.6054 19.5883C16.7365 19.4618 16.8704 19.3328 16.9964 19.2138L17.2237 19.3851C17.4828 19.5805 17.7066 19.749 17.8757 19.8826C18.179 20.1219 18.6326 20.4227 19.0716 20.7137C19.471 20.9782 19.8482 21.2286 20.0471 21.3912C20.2143 21.5267 20.3913 21.6654 20.5473 21.7868C20.7641 21.9548 20.9676 22.112 21.0129 22.1689L21.0335 22.1938C21.1058 22.2814 21.163 22.3505 21.1587 22.4402C21.1551 22.4839 21.1472 22.5272 21.1351 22.5694C21.1085 22.6636 21.0966 22.7613 21.0999 22.8591C21.1023 22.9377 21.1115 23.0084 21.121 23.0835C21.1439 23.2444 21.1529 23.4069 21.1481 23.5693C21.1432 23.7552 21.121 23.9265 21.1048 24.0642C21.0885 24.2018 21.0749 24.3032 21.0798 24.3826C21.0825 24.4232 21.0833 24.4685 21.0842 24.5164C21.0842 24.5451 21.0842 24.5739 21.0861 24.6026L20.8666 24.6156C20.6804 24.6267 20.507 24.6373 20.3517 24.6462C19.3718 24.7029 17.5551 24.8413 16.6934 24.9546C15.8704 25.063 13.4416 25.4665 12.3848 25.6489C12.1276 25.6933 11.8027 25.7654 11.4556 25.8516C11.4613 25.5719 11.4778 25.1362 11.5217 24.824ZM21.5652 21.46C21.5592 21.4672 21.5536 21.4748 21.5486 21.4828L21.5397 21.4795C21.4933 21.4599 21.4439 21.4486 21.3936 21.4462C21.3463 21.4453 21.3001 21.4613 21.2635 21.4914C21.2476 21.5044 21.2335 21.5185 21.2202 21.5302C21.1893 21.5589 21.1744 21.5716 21.1608 21.5716C21.1473 21.5716 21.1245 21.5662 21.0722 21.5302C21.0105 21.4879 20.8213 21.3503 20.5818 21.176C20.1932 20.8909 19.7054 20.5387 19.4409 20.3555C19.2512 20.2254 18.9816 20.0338 18.6952 19.8311C18.3356 19.5764 17.9635 19.3133 17.7408 19.1629C17.6413 19.0959 17.5064 18.9932 17.3538 18.8721C17.4622 18.7637 17.5766 18.6418 17.6952 18.516C18.0307 18.1613 18.4109 17.7595 18.7935 17.4592C19.0734 17.2359 19.3395 16.9958 19.5902 16.7403C19.7528 16.5791 19.8815 16.4517 19.9932 16.3783C20.2758 16.1924 21.1473 15.2632 21.4416 14.9242L21.5405 14.8098C21.7844 14.5296 21.8657 14.435 21.9565 14.2909L21.9746 14.2619C22.0426 14.1535 22.1128 14.0399 22.1694 14.0399C22.2754 14.0467 22.5028 14.1348 22.709 14.3491C22.9233 14.5716 23.6845 15.2764 24.1281 15.5743C24.4533 15.7927 25.1814 16.5311 25.6166 16.9723C25.754 17.1115 25.8624 17.2216 25.9326 17.2896C25.9551 17.3113 25.9822 17.3365 26.0114 17.3636C25.7887 17.5803 25.5914 17.7763 25.4258 17.9418C25.234 18.1342 25.0822 18.286 24.9831 18.3732C24.8985 18.4472 24.7357 18.5827 24.5468 18.7393C24.1362 19.0802 23.5737 19.5474 23.3049 19.8116C23.0171 20.0943 22.3223 20.7763 22.0854 21.0039C21.9681 21.1161 21.8445 21.2183 21.7451 21.3007C21.6456 21.383 21.5912 21.4275 21.5652 21.46ZM29.473 19.7319C29.4057 19.7134 29.3466 19.6727 29.3052 19.6165C29.1895 19.4577 28.5356 18.8708 28.2072 18.6467C27.9091 18.4434 27.3401 17.8879 27.081 17.6226C27.0477 17.5885 27.0122 17.5519 26.9753 17.5142C26.9276 17.4646 26.877 17.4121 26.8252 17.3598C27.2588 16.9739 27.9793 16.3268 28.1603 16.1024C28.3153 15.91 28.6121 15.5805 28.8286 15.3401C28.9695 15.1838 29.0806 15.0602 29.1177 15.0149L29.1576 14.9643C29.1868 14.9266 29.2429 14.8543 29.2874 14.8076C29.3128 15.1266 29.3584 16.3609 29.3673 17.021C29.3773 17.7811 29.3982 18.4369 29.4307 19.0263C29.4386 19.1645 29.4537 19.4276 29.473 19.7314V19.7319Z"/>
  </mask>
  <path d="M30.9764 24.9286C30.962 24.8858 30.9688 24.856 30.9799 24.8066C31.0016 24.7094 31.0317 24.5763 30.8829 24.3078C30.7341 24.0392 30.6138 23.5737 30.5263 23.2349C30.493 23.1062 30.4642 22.9951 30.4398 22.9174C30.3461 22.6193 30.196 21.88 30.1599 21.1687C30.1453 20.8874 30.1152 20.5663 30.0838 20.2262C30.0326 19.6756 29.9754 19.0515 29.9754 18.4938C29.9754 18.0332 29.942 17.6034 29.9098 17.1882C29.8784 16.7818 29.8486 16.3983 29.8486 15.9943C29.8486 15.6455 29.845 15.3843 29.8426 15.1938C29.8391 14.9383 29.8372 14.7979 29.8475 14.7372C29.8534 14.7017 29.8813 14.664 29.9109 14.6239C29.9551 14.5646 30.0049 14.4974 30.0049 14.4071C30.0049 14.2502 29.8318 14.0093 29.7792 13.9578C29.7705 13.9494 29.7627 13.9408 29.7551 13.9307C29.7177 13.8893 29.6665 13.8324 29.5686 13.8324C29.5438 13.8325 29.519 13.8357 29.4949 13.8419C29.4047 13.8641 29.3594 13.9232 29.2974 14.0077C29.2186 14.116 29.1288 14.2159 29.0294 14.3058C28.921 14.4063 28.6953 14.6507 28.4113 14.9602C27.9121 15.5041 27.2284 16.249 26.7041 16.7175C26.6038 16.8067 26.5076 16.8948 26.4139 16.9817C26.383 16.9589 26.3507 16.9382 26.3171 16.9197C26.1301 16.82 25.4678 16.2151 24.8709 15.5997C24.5338 15.2518 24.1314 14.9312 23.8081 14.6735C23.6105 14.5161 23.4401 14.3803 23.3626 14.2977C23.1629 14.0844 22.8388 13.8256 22.6786 13.7061C22.6052 13.6519 22.5949 13.6308 22.5789 13.5993C22.5635 13.5669 22.5444 13.5364 22.522 13.5083C22.4553 13.4237 22.3052 13.3853 22.1938 13.3853C22.0919 13.3853 22.0139 13.4167 21.9743 13.4736C21.9485 13.5117 21.9251 13.5513 21.9042 13.5923C21.8661 13.6686 21.819 13.74 21.7638 13.805C21.7096 13.8695 21.5893 13.9635 21.4733 14.0546C21.3435 14.1567 21.2091 14.2624 21.13 14.3527L21.0999 14.3865C20.9389 14.5692 20.6392 14.9093 20.5118 15.0412C20.445 15.1137 20.3844 15.1918 20.3308 15.2745C20.2761 15.3578 20.2155 15.4369 20.1493 15.5114C20.0831 15.5835 19.9867 15.652 19.8764 15.7314C19.7134 15.8423 19.5604 15.9672 19.419 16.1046C19.2911 16.2325 19.0792 16.4222 18.874 16.6056C18.6101 16.8419 18.3605 17.0663 18.2578 17.1831C18.1857 17.266 17.9803 17.4541 17.763 17.6522C17.3622 18.0182 17.0953 18.2659 17.0416 18.3667C17.0253 18.3978 17.0013 18.4242 16.9721 18.4436C16.9428 18.4629 16.9091 18.4746 16.8742 18.4776C16.7742 18.3949 16.6739 18.3115 16.5761 18.2307C16.3352 18.0304 16.1078 17.841 15.9303 17.7001C15.6111 17.4467 15.1174 17.0191 14.7215 16.6758C14.5047 16.4861 14.315 16.3235 14.2188 16.2444L14.131 16.1758C13.8635 15.9558 13.3652 15.5463 13.2966 15.4621C13.2625 15.4218 13.2223 15.3872 13.1774 15.3594C13.1335 15.3298 13.1316 15.3258 13.1316 15.316C13.1316 15.1789 12.9552 15.0469 12.7541 15.0334C12.7471 15.0334 12.7403 15.0334 12.7335 15.0334C12.6862 15.0339 12.6397 15.0453 12.5974 15.0665C12.5551 15.0878 12.5183 15.1185 12.4897 15.1561C12.4337 15.2269 12.4029 15.3144 12.4021 15.4046C12.4021 15.4659 12.3767 15.5453 12.352 15.6214C12.3249 15.7092 12.2948 15.8 12.2948 15.8853C12.2948 16.0195 12.1935 17.0747 12.1553 17.4719L12.1485 17.5416C12.1162 17.8792 11.978 18.8106 11.8537 19.4051C11.8095 19.616 11.7699 19.7729 11.735 19.9111C11.6729 20.1566 11.6282 20.3341 11.6111 20.611C11.5998 20.7953 11.5358 21.043 11.4678 21.3053C11.3846 21.6275 11.2984 21.9608 11.2984 22.2228C11.2984 22.7407 11.2673 23.1233 11.2383 23.181C11.2211 23.2037 11.2025 23.2253 11.1824 23.2455C11.0955 23.3385 10.9499 23.4937 10.9499 23.7002C10.9499 23.8704 10.9984 23.9441 11.0337 23.9961C11.0512 24.0177 11.0631 24.0433 11.0681 24.0707C11.0697 24.0823 11.0705 24.0899 11.0708 24.0948C11.0453 24.1219 11.0166 24.1622 10.9895 24.2671C10.9565 24.3914 10.9344 24.5184 10.9234 24.6465C10.9212 24.6668 10.919 24.6871 10.9166 24.708C10.9101 24.7649 10.8711 25.0318 10.8299 25.3145C10.7914 25.5768 10.7486 25.8654 10.7245 26.044C9.98876 26.2483 9.29125 26.4732 9.03057 26.5959C8.90715 26.6534 8.78047 26.7035 8.65119 26.7461C8.42112 26.8252 8.25474 26.8816 8.23279 27.1352C8.22087 27.2707 8.13795 27.3585 8.07752 27.4224C8.02955 27.4731 7.98837 27.5167 8.003 27.5769C8.00839 27.5961 8.01873 27.6136 8.033 27.6276C8.04727 27.6416 8.06495 27.6516 8.08429 27.6566C8.10243 27.6628 8.12149 27.6659 8.14066 27.6658C8.22791 27.6658 8.31436 27.6064 8.44497 27.5162C8.61619 27.3924 8.79982 27.2867 8.9929 27.2008C9.34328 27.049 10.1923 26.8138 10.812 26.642C11.0814 26.5675 11.3139 26.503 11.4499 26.461C11.8889 26.3255 13.9652 25.9041 14.7659 25.7887C15.5439 25.6765 18.5348 25.2676 19.2976 25.2286C19.968 25.1941 20.7912 25.1221 21.0619 25.0985L21.1508 25.0906H21.1657C21.183 25.0905 21.2 25.0949 21.215 25.1034C21.2521 25.122 21.2931 25.1313 21.3345 25.1305C21.3825 25.1291 21.4301 25.1219 21.4763 25.1091C21.686 25.0549 21.7635 25.0489 22.0521 25.0253L22.0738 25.0237C22.2746 25.0072 22.848 24.989 23.3504 24.989C23.6273 24.989 23.8552 24.9944 24.0097 25.0047C24.0948 25.0107 24.1858 25.0134 24.2807 25.0134C24.5788 25.0134 24.8869 24.9863 25.1836 24.9573C25.3191 24.9448 25.4611 24.9302 25.5966 24.9218C25.931 24.898 26.4499 24.8749 26.9515 24.8527C27.2208 24.8408 27.4861 24.8291 27.7176 24.8172C27.9685 24.8047 28.1809 24.7882 28.3679 24.7736C28.6186 24.7541 28.8354 24.737 29.0508 24.737C29.1009 24.737 29.1489 24.737 29.1971 24.7397C29.2134 24.7397 29.2291 24.7397 29.2443 24.7397C29.3995 24.7397 29.505 24.7072 29.5665 24.6405C29.6367 24.5644 29.6288 24.4693 29.6234 24.4061C29.6219 24.3924 29.6213 24.3787 29.6215 24.3649C29.625 24.3126 29.6234 24.2365 29.5697 24.179C29.5296 24.1362 29.4695 24.1143 29.3914 24.1143C29.3312 24.1157 29.2713 24.1248 29.2134 24.1414C28.9175 24.2178 27.7747 24.3175 26.949 24.3389C26.6016 24.3479 26.2364 24.372 25.8499 24.3975C25.2928 24.4343 24.7167 24.4723 24.0988 24.4728C23.4572 24.4728 22.5759 24.5153 21.7635 24.5611C21.7605 24.5113 21.7565 24.4527 21.7519 24.3826C21.7318 24.0861 21.7069 23.7173 21.7202 23.53C21.7329 23.3534 21.7096 23.1179 21.6871 22.8897C21.6654 22.6729 21.6451 22.4662 21.66 22.3542C21.689 22.1486 22.0741 21.6676 22.4526 21.3643C22.6423 21.2129 22.9675 20.9012 23.3103 20.5715C23.6485 20.2463 23.9983 19.9111 24.2465 19.7011C24.7557 19.2707 25.5494 18.5044 25.6982 18.3461C25.8066 18.2307 26.1353 17.9538 26.3312 17.7882L26.4152 17.7169C26.8388 18.0784 27.3832 18.5215 27.6292 18.7019C27.9097 18.9079 28.5297 19.5371 28.94 19.9533C29.0549 20.0701 29.1543 20.1701 29.2226 20.2384C29.3233 20.3418 29.4081 20.4595 29.4743 20.5877C29.4943 20.6255 29.517 20.6617 29.5424 20.6961C29.56 20.901 29.5781 21.0836 29.5965 21.2164C29.615 21.3492 29.6274 21.5082 29.6407 21.6749C29.6738 22.0881 29.7112 22.5567 29.851 22.8886C30.0504 23.3623 30.1204 23.6268 30.1382 23.9764C30.1559 24.3213 30.1854 24.3728 30.2407 24.4405L30.2553 24.4592C30.2702 24.4807 30.2957 24.5782 30.3144 24.6489C30.3455 24.7676 30.3778 24.8904 30.4228 24.9665C30.4402 25.0028 30.4528 25.0413 30.4602 25.0809C30.4873 25.199 30.5276 25.3605 30.7414 25.4061C30.7533 25.4085 30.7654 25.4098 30.7775 25.4099C30.8079 25.4089 30.8377 25.4005 30.8642 25.3854C30.8907 25.3703 30.9131 25.3491 30.9295 25.3234C31.0011 25.2267 31.0208 25.0595 30.9764 24.9286ZM16.3639 19.0084C16.2425 19.1314 15.1288 20.1409 14.8581 20.3837C14.7835 20.4506 14.6524 20.5804 14.4865 20.7446C14.0378 21.1888 13.3595 21.86 12.9988 22.0811C12.7089 22.2586 12.213 22.6884 11.8355 23.0295C11.8764 22.7122 11.9103 22.4117 11.9184 22.3052C11.9301 22.1567 11.9883 21.8773 12.0623 21.524C12.1396 21.1551 12.2355 20.6961 12.3084 20.2327C12.3626 19.8837 12.4265 19.5553 12.4878 19.2388C12.5837 18.7404 12.6742 18.2697 12.7192 17.789C12.7476 17.4863 12.7785 17.276 12.8081 17.0725C12.871 16.6664 12.9111 16.2572 12.9284 15.8466C12.9774 15.8517 13.0766 15.8943 13.1671 15.9964C13.2628 16.1048 13.5736 16.3726 14.0072 16.7441C14.3204 17.0134 14.7104 17.3489 15.1133 17.7058C15.5507 18.0933 16.0431 18.4841 16.5111 18.8439C16.4663 18.9025 16.4171 18.9575 16.3639 19.0084ZM11.5217 24.824L11.5288 24.7749C11.5911 24.337 11.6323 24.0479 11.6759 23.969C11.688 23.9417 11.6971 23.913 11.703 23.8837C11.7634 23.8368 11.8325 23.7775 11.9125 23.7073C11.9743 23.6531 12.0328 23.6019 12.0799 23.5653C12.2932 23.4008 13.1777 22.6981 13.3563 22.525C13.4213 22.4621 13.5763 22.3421 13.756 22.203C14.0465 21.9781 14.4082 21.6985 14.596 21.4985C14.9114 21.163 15.7401 20.3417 15.9187 20.2181C16.0398 20.1346 16.3019 19.8815 16.6054 19.5883C16.7365 19.4618 16.8704 19.3328 16.9964 19.2138L17.2237 19.3851C17.4828 19.5805 17.7066 19.749 17.8757 19.8826C18.179 20.1219 18.6326 20.4227 19.0716 20.7137C19.471 20.9782 19.8482 21.2286 20.0471 21.3912C20.2143 21.5267 20.3913 21.6654 20.5473 21.7868C20.7641 21.9548 20.9676 22.112 21.0129 22.1689L21.0335 22.1938C21.1058 22.2814 21.163 22.3505 21.1587 22.4402C21.1551 22.4839 21.1472 22.5272 21.1351 22.5694C21.1085 22.6636 21.0966 22.7613 21.0999 22.8591C21.1023 22.9377 21.1115 23.0084 21.121 23.0835C21.1439 23.2444 21.1529 23.4069 21.1481 23.5693C21.1432 23.7552 21.121 23.9265 21.1048 24.0642C21.0885 24.2018 21.0749 24.3032 21.0798 24.3826C21.0825 24.4232 21.0833 24.4685 21.0842 24.5164C21.0842 24.5451 21.0842 24.5739 21.0861 24.6026L20.8666 24.6156C20.6804 24.6267 20.507 24.6373 20.3517 24.6462C19.3718 24.7029 17.5551 24.8413 16.6934 24.9546C15.8704 25.063 13.4416 25.4665 12.3848 25.6489C12.1276 25.6933 11.8027 25.7654 11.4556 25.8516C11.4613 25.5719 11.4778 25.1362 11.5217 24.824ZM21.5652 21.46C21.5592 21.4672 21.5536 21.4748 21.5486 21.4828L21.5397 21.4795C21.4933 21.4599 21.4439 21.4486 21.3936 21.4462C21.3463 21.4453 21.3001 21.4613 21.2635 21.4914C21.2476 21.5044 21.2335 21.5185 21.2202 21.5302C21.1893 21.5589 21.1744 21.5716 21.1608 21.5716C21.1473 21.5716 21.1245 21.5662 21.0722 21.5302C21.0105 21.4879 20.8213 21.3503 20.5818 21.176C20.1932 20.8909 19.7054 20.5387 19.4409 20.3555C19.2512 20.2254 18.9816 20.0338 18.6952 19.8311C18.3356 19.5764 17.9635 19.3133 17.7408 19.1629C17.6413 19.0959 17.5064 18.9932 17.3538 18.8721C17.4622 18.7637 17.5766 18.6418 17.6952 18.516C18.0307 18.1613 18.4109 17.7595 18.7935 17.4592C19.0734 17.2359 19.3395 16.9958 19.5902 16.7403C19.7528 16.5791 19.8815 16.4517 19.9932 16.3783C20.2758 16.1924 21.1473 15.2632 21.4416 14.9242L21.5405 14.8098C21.7844 14.5296 21.8657 14.435 21.9565 14.2909L21.9746 14.2619C22.0426 14.1535 22.1128 14.0399 22.1694 14.0399C22.2754 14.0467 22.5028 14.1348 22.709 14.3491C22.9233 14.5716 23.6845 15.2764 24.1281 15.5743C24.4533 15.7927 25.1814 16.5311 25.6166 16.9723C25.754 17.1115 25.8624 17.2216 25.9326 17.2896C25.9551 17.3113 25.9822 17.3365 26.0114 17.3636C25.7887 17.5803 25.5914 17.7763 25.4258 17.9418C25.234 18.1342 25.0822 18.286 24.9831 18.3732C24.8985 18.4472 24.7357 18.5827 24.5468 18.7393C24.1362 19.0802 23.5737 19.5474 23.3049 19.8116C23.0171 20.0943 22.3223 20.7763 22.0854 21.0039C21.9681 21.1161 21.8445 21.2183 21.7451 21.3007C21.6456 21.383 21.5912 21.4275 21.5652 21.46ZM29.473 19.7319C29.4057 19.7134 29.3466 19.6727 29.3052 19.6165C29.1895 19.4577 28.5356 18.8708 28.2072 18.6467C27.9091 18.4434 27.3401 17.8879 27.081 17.6226C27.0477 17.5885 27.0122 17.5519 26.9753 17.5142C26.9276 17.4646 26.877 17.4121 26.8252 17.3598C27.2588 16.9739 27.9793 16.3268 28.1603 16.1024C28.3153 15.91 28.6121 15.5805 28.8286 15.3401C28.9695 15.1838 29.0806 15.0602 29.1177 15.0149L29.1576 14.9643C29.1868 14.9266 29.2429 14.8543 29.2874 14.8076C29.3128 15.1266 29.3584 16.3609 29.3673 17.021C29.3773 17.7811 29.3982 18.4369 29.4307 19.0263C29.4386 19.1645 29.4537 19.4276 29.473 19.7314V19.7319Z" fill="#3DFF49"/>
  <path d="M30.9764 24.9286C30.962 24.8858 30.9688 24.856 30.9799 24.8066C31.0016 24.7094 31.0317 24.5763 30.8829 24.3078C30.7341 24.0392 30.6138 23.5737 30.5263 23.2349C30.493 23.1062 30.4642 22.9951 30.4398 22.9174C30.3461 22.6193 30.196 21.88 30.1599 21.1687C30.1453 20.8874 30.1152 20.5663 30.0838 20.2262C30.0326 19.6756 29.9754 19.0515 29.9754 18.4938C29.9754 18.0332 29.942 17.6034 29.9098 17.1882C29.8784 16.7818 29.8486 16.3983 29.8486 15.9943C29.8486 15.6455 29.845 15.3843 29.8426 15.1938C29.8391 14.9383 29.8372 14.7979 29.8475 14.7372C29.8534 14.7017 29.8813 14.664 29.9109 14.6239C29.9551 14.5646 30.0049 14.4974 30.0049 14.4071C30.0049 14.2502 29.8318 14.0093 29.7792 13.9578C29.7705 13.9494 29.7627 13.9408 29.7551 13.9307C29.7177 13.8893 29.6665 13.8324 29.5686 13.8324C29.5438 13.8325 29.519 13.8357 29.4949 13.8419C29.4047 13.8641 29.3594 13.9232 29.2974 14.0077C29.2186 14.116 29.1288 14.2159 29.0294 14.3058C28.921 14.4063 28.6953 14.6507 28.4113 14.9602C27.9121 15.5041 27.2284 16.249 26.7041 16.7175C26.6038 16.8067 26.5076 16.8948 26.4139 16.9817C26.383 16.9589 26.3507 16.9382 26.3171 16.9197C26.1301 16.82 25.4678 16.2151 24.8709 15.5997C24.5338 15.2518 24.1314 14.9312 23.8081 14.6735C23.6105 14.5161 23.4401 14.3803 23.3626 14.2977C23.1629 14.0844 22.8388 13.8256 22.6786 13.7061C22.6052 13.6519 22.5949 13.6308 22.5789 13.5993C22.5635 13.5669 22.5444 13.5364 22.522 13.5083C22.4553 13.4237 22.3052 13.3853 22.1938 13.3853C22.0919 13.3853 22.0139 13.4167 21.9743 13.4736C21.9485 13.5117 21.9251 13.5513 21.9042 13.5923C21.8661 13.6686 21.819 13.74 21.7638 13.805C21.7096 13.8695 21.5893 13.9635 21.4733 14.0546C21.3435 14.1567 21.2091 14.2624 21.13 14.3527L21.0999 14.3865C20.9389 14.5692 20.6392 14.9093 20.5118 15.0412C20.445 15.1137 20.3844 15.1918 20.3308 15.2745C20.2761 15.3578 20.2155 15.4369 20.1493 15.5114C20.0831 15.5835 19.9867 15.652 19.8764 15.7314C19.7134 15.8423 19.5604 15.9672 19.419 16.1046C19.2911 16.2325 19.0792 16.4222 18.874 16.6056C18.6101 16.8419 18.3605 17.0663 18.2578 17.1831C18.1857 17.266 17.9803 17.4541 17.763 17.6522C17.3622 18.0182 17.0953 18.2659 17.0416 18.3667C17.0253 18.3978 17.0013 18.4242 16.9721 18.4436C16.9428 18.4629 16.9091 18.4746 16.8742 18.4776C16.7742 18.3949 16.6739 18.3115 16.5761 18.2307C16.3352 18.0304 16.1078 17.841 15.9303 17.7001C15.6111 17.4467 15.1174 17.0191 14.7215 16.6758C14.5047 16.4861 14.315 16.3235 14.2188 16.2444L14.131 16.1758C13.8635 15.9558 13.3652 15.5463 13.2966 15.4621C13.2625 15.4218 13.2223 15.3872 13.1774 15.3594C13.1335 15.3298 13.1316 15.3258 13.1316 15.316C13.1316 15.1789 12.9552 15.0469 12.7541 15.0334C12.7471 15.0334 12.7403 15.0334 12.7335 15.0334C12.6862 15.0339 12.6397 15.0453 12.5974 15.0665C12.5551 15.0878 12.5183 15.1185 12.4897 15.1561C12.4337 15.2269 12.4029 15.3144 12.4021 15.4046C12.4021 15.4659 12.3767 15.5453 12.352 15.6214C12.3249 15.7092 12.2948 15.8 12.2948 15.8853C12.2948 16.0195 12.1935 17.0747 12.1553 17.4719L12.1485 17.5416C12.1162 17.8792 11.978 18.8106 11.8537 19.4051C11.8095 19.616 11.7699 19.7729 11.735 19.9111C11.6729 20.1566 11.6282 20.3341 11.6111 20.611C11.5998 20.7953 11.5358 21.043 11.4678 21.3053C11.3846 21.6275 11.2984 21.9608 11.2984 22.2228C11.2984 22.7407 11.2673 23.1233 11.2383 23.181C11.2211 23.2037 11.2025 23.2253 11.1824 23.2455C11.0955 23.3385 10.9499 23.4937 10.9499 23.7002C10.9499 23.8704 10.9984 23.9441 11.0337 23.9961C11.0512 24.0177 11.0631 24.0433 11.0681 24.0707C11.0697 24.0823 11.0705 24.0899 11.0708 24.0948C11.0453 24.1219 11.0166 24.1622 10.9895 24.2671C10.9565 24.3914 10.9344 24.5184 10.9234 24.6465C10.9212 24.6668 10.919 24.6871 10.9166 24.708C10.9101 24.7649 10.8711 25.0318 10.8299 25.3145C10.7914 25.5768 10.7486 25.8654 10.7245 26.044C9.98876 26.2483 9.29125 26.4732 9.03057 26.5959C8.90715 26.6534 8.78047 26.7035 8.65119 26.7461C8.42112 26.8252 8.25474 26.8816 8.23279 27.1352C8.22087 27.2707 8.13795 27.3585 8.07752 27.4224C8.02955 27.4731 7.98837 27.5167 8.003 27.5769C8.00839 27.5961 8.01873 27.6136 8.033 27.6276C8.04727 27.6416 8.06495 27.6516 8.08429 27.6566C8.10243 27.6628 8.12149 27.6659 8.14066 27.6658C8.22791 27.6658 8.31436 27.6064 8.44497 27.5162C8.61619 27.3924 8.79982 27.2867 8.9929 27.2008C9.34328 27.049 10.1923 26.8138 10.812 26.642C11.0814 26.5675 11.3139 26.503 11.4499 26.461C11.8889 26.3255 13.9652 25.9041 14.7659 25.7887C15.5439 25.6765 18.5348 25.2676 19.2976 25.2286C19.968 25.1941 20.7912 25.1221 21.0619 25.0985L21.1508 25.0906H21.1657C21.183 25.0905 21.2 25.0949 21.215 25.1034C21.2521 25.122 21.2931 25.1313 21.3345 25.1305C21.3825 25.1291 21.4301 25.1219 21.4763 25.1091C21.686 25.0549 21.7635 25.0489 22.0521 25.0253L22.0738 25.0237C22.2746 25.0072 22.848 24.989 23.3504 24.989C23.6273 24.989 23.8552 24.9944 24.0097 25.0047C24.0948 25.0107 24.1858 25.0134 24.2807 25.0134C24.5788 25.0134 24.8869 24.9863 25.1836 24.9573C25.3191 24.9448 25.4611 24.9302 25.5966 24.9218C25.931 24.898 26.4499 24.8749 26.9515 24.8527C27.2208 24.8408 27.4861 24.8291 27.7176 24.8172C27.9685 24.8047 28.1809 24.7882 28.3679 24.7736C28.6186 24.7541 28.8354 24.737 29.0508 24.737C29.1009 24.737 29.1489 24.737 29.1971 24.7397C29.2134 24.7397 29.2291 24.7397 29.2443 24.7397C29.3995 24.7397 29.505 24.7072 29.5665 24.6405C29.6367 24.5644 29.6288 24.4693 29.6234 24.4061C29.6219 24.3924 29.6213 24.3787 29.6215 24.3649C29.625 24.3126 29.6234 24.2365 29.5697 24.179C29.5296 24.1362 29.4695 24.1143 29.3914 24.1143C29.3312 24.1157 29.2713 24.1248 29.2134 24.1414C28.9175 24.2178 27.7747 24.3175 26.949 24.3389C26.6016 24.3479 26.2364 24.372 25.8499 24.3975C25.2928 24.4343 24.7167 24.4723 24.0988 24.4728C23.4572 24.4728 22.5759 24.5153 21.7635 24.5611C21.7605 24.5113 21.7565 24.4527 21.7519 24.3826C21.7318 24.0861 21.7069 23.7173 21.7202 23.53C21.7329 23.3534 21.7096 23.1179 21.6871 22.8897C21.6654 22.6729 21.6451 22.4662 21.66 22.3542C21.689 22.1486 22.0741 21.6676 22.4526 21.3643C22.6423 21.2129 22.9675 20.9012 23.3103 20.5715C23.6485 20.2463 23.9983 19.9111 24.2465 19.7011C24.7557 19.2707 25.5494 18.5044 25.6982 18.3461C25.8066 18.2307 26.1353 17.9538 26.3312 17.7882L26.4152 17.7169C26.8388 18.0784 27.3832 18.5215 27.6292 18.7019C27.9097 18.9079 28.5297 19.5371 28.94 19.9533C29.0549 20.0701 29.1543 20.1701 29.2226 20.2384C29.3233 20.3418 29.4081 20.4595 29.4743 20.5877C29.4943 20.6255 29.517 20.6617 29.5424 20.6961C29.56 20.901 29.5781 21.0836 29.5965 21.2164C29.615 21.3492 29.6274 21.5082 29.6407 21.6749C29.6738 22.0881 29.7112 22.5567 29.851 22.8886C30.0504 23.3623 30.1204 23.6268 30.1382 23.9764C30.1559 24.3213 30.1854 24.3728 30.2407 24.4405L30.2553 24.4592C30.2702 24.4807 30.2957 24.5782 30.3144 24.6489C30.3455 24.7676 30.3778 24.8904 30.4228 24.9665C30.4402 25.0028 30.4528 25.0413 30.4602 25.0809C30.4873 25.199 30.5276 25.3605 30.7414 25.4061C30.7533 25.4085 30.7654 25.4098 30.7775 25.4099C30.8079 25.4089 30.8377 25.4005 30.8642 25.3854C30.8907 25.3703 30.9131 25.3491 30.9295 25.3234C31.0011 25.2267 31.0208 25.0595 30.9764 24.9286ZM16.3639 19.0084C16.2425 19.1314 15.1288 20.1409 14.8581 20.3837C14.7835 20.4506 14.6524 20.5804 14.4865 20.7446C14.0378 21.1888 13.3595 21.86 12.9988 22.0811C12.7089 22.2586 12.213 22.6884 11.8355 23.0295C11.8764 22.7122 11.9103 22.4117 11.9184 22.3052C11.9301 22.1567 11.9883 21.8773 12.0623 21.524C12.1396 21.1551 12.2355 20.6961 12.3084 20.2327C12.3626 19.8837 12.4265 19.5553 12.4878 19.2388C12.5837 18.7404 12.6742 18.2697 12.7192 17.789C12.7476 17.4863 12.7785 17.276 12.8081 17.0725C12.871 16.6664 12.9111 16.2572 12.9284 15.8466C12.9774 15.8517 13.0766 15.8943 13.1671 15.9964C13.2628 16.1048 13.5736 16.3726 14.0072 16.7441C14.3204 17.0134 14.7104 17.3489 15.1133 17.7058C15.5507 18.0933 16.0431 18.4841 16.5111 18.8439C16.4663 18.9025 16.4171 18.9575 16.3639 19.0084ZM11.5217 24.824L11.5288 24.7749C11.5911 24.337 11.6323 24.0479 11.6759 23.969C11.688 23.9417 11.6971 23.913 11.703 23.8837C11.7634 23.8368 11.8325 23.7775 11.9125 23.7073C11.9743 23.6531 12.0328 23.6019 12.0799 23.5653C12.2932 23.4008 13.1777 22.6981 13.3563 22.525C13.4213 22.4621 13.5763 22.3421 13.756 22.203C14.0465 21.9781 14.4082 21.6985 14.596 21.4985C14.9114 21.163 15.7401 20.3417 15.9187 20.2181C16.0398 20.1346 16.3019 19.8815 16.6054 19.5883C16.7365 19.4618 16.8704 19.3328 16.9964 19.2138L17.2237 19.3851C17.4828 19.5805 17.7066 19.749 17.8757 19.8826C18.179 20.1219 18.6326 20.4227 19.0716 20.7137C19.471 20.9782 19.8482 21.2286 20.0471 21.3912C20.2143 21.5267 20.3913 21.6654 20.5473 21.7868C20.7641 21.9548 20.9676 22.112 21.0129 22.1689L21.0335 22.1938C21.1058 22.2814 21.163 22.3505 21.1587 22.4402C21.1551 22.4839 21.1472 22.5272 21.1351 22.5694C21.1085 22.6636 21.0966 22.7613 21.0999 22.8591C21.1023 22.9377 21.1115 23.0084 21.121 23.0835C21.1439 23.2444 21.1529 23.4069 21.1481 23.5693C21.1432 23.7552 21.121 23.9265 21.1048 24.0642C21.0885 24.2018 21.0749 24.3032 21.0798 24.3826C21.0825 24.4232 21.0833 24.4685 21.0842 24.5164C21.0842 24.5451 21.0842 24.5739 21.0861 24.6026L20.8666 24.6156C20.6804 24.6267 20.507 24.6373 20.3517 24.6462C19.3718 24.7029 17.5551 24.8413 16.6934 24.9546C15.8704 25.063 13.4416 25.4665 12.3848 25.6489C12.1276 25.6933 11.8027 25.7654 11.4556 25.8516C11.4613 25.5719 11.4778 25.1362 11.5217 24.824ZM21.5652 21.46C21.5592 21.4672 21.5536 21.4748 21.5486 21.4828L21.5397 21.4795C21.4933 21.4599 21.4439 21.4486 21.3936 21.4462C21.3463 21.4453 21.3001 21.4613 21.2635 21.4914C21.2476 21.5044 21.2335 21.5185 21.2202 21.5302C21.1893 21.5589 21.1744 21.5716 21.1608 21.5716C21.1473 21.5716 21.1245 21.5662 21.0722 21.5302C21.0105 21.4879 20.8213 21.3503 20.5818 21.176C20.1932 20.8909 19.7054 20.5387 19.4409 20.3555C19.2512 20.2254 18.9816 20.0338 18.6952 19.8311C18.3356 19.5764 17.9635 19.3133 17.7408 19.1629C17.6413 19.0959 17.5064 18.9932 17.3538 18.8721C17.4622 18.7637 17.5766 18.6418 17.6952 18.516C18.0307 18.1613 18.4109 17.7595 18.7935 17.4592C19.0734 17.2359 19.3395 16.9958 19.5902 16.7403C19.7528 16.5791 19.8815 16.4517 19.9932 16.3783C20.2758 16.1924 21.1473 15.2632 21.4416 14.9242L21.5405 14.8098C21.7844 14.5296 21.8657 14.435 21.9565 14.2909L21.9746 14.2619C22.0426 14.1535 22.1128 14.0399 22.1694 14.0399C22.2754 14.0467 22.5028 14.1348 22.709 14.3491C22.9233 14.5716 23.6845 15.2764 24.1281 15.5743C24.4533 15.7927 25.1814 16.5311 25.6166 16.9723C25.754 17.1115 25.8624 17.2216 25.9326 17.2896C25.9551 17.3113 25.9822 17.3365 26.0114 17.3636C25.7887 17.5803 25.5914 17.7763 25.4258 17.9418C25.234 18.1342 25.0822 18.286 24.9831 18.3732C24.8985 18.4472 24.7357 18.5827 24.5468 18.7393C24.1362 19.0802 23.5737 19.5474 23.3049 19.8116C23.0171 20.0943 22.3223 20.7763 22.0854 21.0039C21.9681 21.1161 21.8445 21.2183 21.7451 21.3007C21.6456 21.383 21.5912 21.4275 21.5652 21.46ZM29.473 19.7319C29.4057 19.7134 29.3466 19.6727 29.3052 19.6165C29.1895 19.4577 28.5356 18.8708 28.2072 18.6467C27.9091 18.4434 27.3401 17.8879 27.081 17.6226C27.0477 17.5885 27.0122 17.5519 26.9753 17.5142C26.9276 17.4646 26.877 17.4121 26.8252 17.3598C27.2588 16.9739 27.9793 16.3268 28.1603 16.1024C28.3153 15.91 28.6121 15.5805 28.8286 15.3401C28.9695 15.1838 29.0806 15.0602 29.1177 15.0149L29.1576 14.9643C29.1868 14.9266 29.2429 14.8543 29.2874 14.8076C29.3128 15.1266 29.3584 16.3609 29.3673 17.021C29.3773 17.7811 29.3982 18.4369 29.4307 19.0263C29.4386 19.1645 29.4537 19.4276 29.473 19.7314V19.7319Z" stroke="#3DFF49" stroke-width="0.8" mask="url(#path-2-outside-1_848_743)"/>
  <path d="M28.914 11.8951L28.914 11.8951C28.8268 11.7167 28.8181 11.5168 28.9011 11.3423C28.8852 11.2929 28.8749 11.2417 28.8706 11.1898C28.8706 11.1895 28.8705 11.1892 28.8705 11.1889L28.914 11.8951ZM28.914 11.8951L28.9152 11.8975M28.914 11.8951L28.9152 11.8975M29.45 11.6045V11.5958M29.45 11.6045C29.4563 11.618 29.4884 11.6407 29.5312 11.6566L29.45 11.5958M29.45 11.6045L29.4627 11.5987M29.45 11.6045L29.4627 11.5987M29.45 11.5958C29.4542 11.5968 29.4584 11.5978 29.4627 11.5987M29.45 11.5958L29.4627 11.5987M29.728 10.8558C29.7215 10.8926 29.7172 10.9381 29.7172 10.9945V10.9977L29.7172 10.9977C29.717 11.009 29.7183 11.0203 29.721 11.0312L29.6624 11.0456C29.6495 11.0423 29.6364 11.0406 29.6235 11.0406M29.728 10.8558L29.5259 10.8545C29.5203 10.8964 29.5172 10.9429 29.5172 10.9945C29.5168 11.0229 29.52 11.0512 29.5267 11.0788C29.5527 11.0539 29.5875 11.0402 29.6235 11.0406M29.728 10.8558C29.7435 10.7686 29.7719 10.7309 29.7873 10.7159C29.8098 10.6937 29.8408 10.6845 29.8785 10.6845H29.8785H29.8786H29.8786H29.8787H29.8787H29.8788H29.8788H29.8789H29.879H29.879H29.8791H29.8791H29.8792H29.8792H29.8793H29.8793H29.8794H29.8794H29.8795H29.8796H29.8796H29.8797H29.8797H29.8798H29.8798H29.8799H29.8799H29.88H29.88H29.8801H29.8802H29.8802H29.8803H29.8803H29.8804H29.8804H29.8805H29.8805H29.8806H29.8807H29.8807H29.8808H29.8808H29.8809H29.8809H29.881H29.881H29.8811H29.8811H29.8812H29.8813H29.8813H29.8814H29.8814H29.8815H29.8815H29.8816H29.8816H29.8817H29.8817H29.8818H29.8819H29.8819H29.882H29.882H29.8821H29.8821H29.8822H29.8822H29.8823H29.8823H29.8824H29.8825H29.8825H29.8826H29.8826H29.8827H29.8827H29.8828H29.8828H29.8829H29.8829H29.883H29.8831H29.8831H29.8832H29.8832H29.8833H29.8833H29.8834H29.8834H29.8835H29.8835H29.8836H29.8836H29.8837H29.8838H29.8838H29.8839H29.8839H29.884H29.884H29.8841H29.8841H29.8842H29.8842H29.8843H29.8844H29.8844H29.8845H29.8845H29.8846H29.8846H29.8847H29.8847H29.8848H29.8848H29.8849H29.8849H29.885H29.8851H29.8851H29.8852H29.8852H29.8853H29.8853H29.8854H29.8854H29.8855H29.8855H29.8856H29.8856H29.8857H29.8858H29.8858H29.8859H29.8859H29.886H29.886H29.8861H29.8861H29.8862H29.8862H29.8863H29.8864H29.8864H29.8865H29.8865H29.8866H29.8866H29.8867H29.8867H29.8868H29.8868H29.8869H29.8869H29.887H29.887H29.8871H29.8872H29.8872H29.8873H29.8873H29.8874H29.8874H29.8875H29.8875H29.8876H29.8876H29.8877H29.8877H29.8878H29.8879H29.8879H29.888H29.888H29.8881H29.8881H29.8882H29.8882H29.8883H29.8883H29.8884H29.8884H29.8885H29.8886H29.8886H29.8887H29.8887H29.8888H29.8888H29.8889H29.8889H29.889H29.889H29.8891H29.8891H29.8892H29.8892H29.8893H29.8894H29.8894H29.8895H29.8895H29.8896H29.8896H29.8897H29.8897H29.8898H29.8898H29.8899H29.8899H29.89H29.89H29.8901H29.8902H29.8902H29.8903H29.8903H29.8904H29.8904H29.8905H29.8905H29.8906H29.8906H29.8907H29.8907H29.8908H29.8908H29.8909H29.891H29.891H29.8911H29.8911H29.8912H29.8912H29.8913H29.8913H29.8914H29.8914H29.8915H29.8915H29.8916H29.8916H29.8917H29.8917H29.8918H29.8919H29.8919H29.892H29.892H29.8921H29.8921H29.8922H29.8922H29.8923H29.8923H29.8924H29.8924H29.8925H29.8925H29.8926H29.8926H29.8927H29.8928H29.8928H29.8929H29.8929H29.893H29.893H29.8931H29.8931H29.8932H29.8932H29.8933H29.8933H29.8934H29.8934H29.8935H29.8935H29.8936H29.8936H29.8937H29.8938H29.8938H29.8939H29.8939H29.894H29.894H29.8941H29.8941H29.8942H29.8942H29.8943H29.8943H29.8944H29.8944H29.8945H29.8945H29.8946H29.8946H29.8947H29.8948H29.8948H29.8949H29.8949H29.895H29.895H29.8951H29.8951H29.8952H29.8952H29.8953H29.8953H29.8954H29.8954H29.8955H29.8955H29.8956H29.8956H29.8957H29.8958H29.8958H29.8959H29.8959H29.896H29.896H29.8961H29.8961H29.8962H29.8962H29.8963H29.8963H29.8964H29.8964H29.8965H29.8965H29.8966H29.8966H29.8967H29.8967H29.8968H29.8968H29.8969H29.897H29.897H29.8971H29.8971H29.8972H29.8972H29.8973H29.8973H29.8974H29.8974H29.8975H29.8975H29.8976H29.8976H29.8977H29.8977H29.8978H29.8978H29.8979H29.8979H29.898H29.898H29.8981H29.8982H29.8982H29.8983H29.8983H29.8984H29.8984H29.8985H29.8985H29.8986H29.8986C29.916 10.6858 29.9288 10.687 29.9383 10.6882L29.728 10.8558ZM29.6235 11.0406L29.6239 10.9962L29.6239 10.9945L29.6256 10.8406C29.6252 10.8406 29.6249 10.8406 29.6245 10.8406C29.6242 10.8406 29.6238 10.8406 29.6235 10.8406V10.9945V10.9962V11.0406ZM28.9152 11.8975C28.9793 12.0241 29.0751 12.1318 29.1933 12.2103C29.3114 12.2887 29.4479 12.3352 29.5894 12.3452L29.5894 12.3456M28.9152 11.8975L29.5894 12.3456M29.5894 12.3456H29.6034M29.5894 12.3456H29.6034M29.6034 12.3456H29.6035H29.6035H29.6036H29.6036H29.6037H29.6038H29.6038H29.6039H29.6039H29.604H29.604H29.6041H29.6042H29.6042H29.6043H29.6043H29.6044H29.6044H29.6045H29.6046H29.6046H29.6047H29.6047H29.6048H29.6048H29.6049H29.605H29.605H29.6051H29.6051H29.6052H29.6052H29.6053H29.6054H29.6054H29.6055H29.6055H29.6056H29.6056H29.6057H29.6058H29.6058H29.6059H29.6059H29.606H29.606H29.6061H29.6062H29.6062H29.6063H29.6063H29.6064H29.6064H29.6065H29.6066H29.6066H29.6067H29.6067H29.6068H29.6068H29.6069H29.607H29.607H29.6071H29.6071H29.6072H29.6073H29.6073H29.6074H29.6074H29.6075H29.6075H29.6076H29.6077H29.6077H29.6078H29.6078H29.6079H29.6079H29.608H29.6081H29.6081H29.6082H29.6082H29.6083H29.6083H29.6084H29.6085H29.6085H29.6086H29.6086H29.6087H29.6087H29.6088H29.6089H29.6089H29.609H29.609H29.6091H29.6092H29.6092H29.6093H29.6093H29.6094H29.6094H29.6095H29.6096H29.6096H29.6097H29.6097H29.6098H29.6098H29.6099H29.61H29.61H29.6101H29.6101H29.6102H29.6103H29.6103H29.6104H29.6104H29.6105H29.6105H29.6106H29.6107H29.6107H29.6108H29.6108H29.6109H29.6109H29.611H29.6111H29.6111H29.6112H29.6112H29.6113H29.6113H29.6114H29.6115H29.6115H29.6116H29.6116H29.6117H29.6118H29.6118H29.6119H29.6119H29.612H29.612H29.6121H29.6122H29.6122H29.6123H29.6123H29.6124H29.6125H29.6125H29.6126H29.6126H29.6127H29.6127H29.6128H29.6129H29.6129H29.613H29.613H29.6131H29.6131H29.6132H29.6133H29.6133H29.6134H29.6134H29.6135H29.6136H29.6136H29.6137H29.6137H29.6138H29.6138H29.6139H29.614H29.614H29.6141H29.6141H29.6142H29.6142H29.6143H29.6144H29.6144H29.6145H29.6145H29.6146H29.6147H29.6147H29.6148H29.6148H29.6149H29.6149H29.615H29.6151H29.6151H29.6152H29.6152H29.6153H29.6154H29.6154H29.6155H29.6155H29.6156H29.6156H29.6157H29.6158H29.6158H29.6159H29.6159H29.616H29.6161H29.6161H29.6162H29.6162H29.6163H29.6163H29.6164H29.6165H29.6165H29.6166H29.6166H29.6167H29.6168H29.6168H29.6169H29.6169H29.617H29.617H29.6171H29.6172H29.6172H29.6173H29.6173H29.6174H29.6175H29.6175H29.6176H29.6176H29.6177H29.6177H29.6178H29.6179H29.6179H29.618H29.618H29.6181H29.6182H29.6182H29.6183H29.6183H29.6184H29.6184H29.6185H29.6186H29.6186H29.6187H29.6187H29.6188H29.6189H29.6189H29.619H29.619H29.6191H29.6191H29.6192H29.6193H29.6193H29.6194H29.6194H29.6195H29.6196H29.6196H29.6197H29.6197H29.6198H29.6198H29.6199H29.62H29.62H29.6201H29.6201H29.6202H29.6203H29.6203H29.6204H29.6204H29.6205H29.6205H29.6206H29.6207H29.6207H29.6208H29.6208H29.6209H29.621H29.621H29.6211H29.6211H29.6212H29.6212H29.6213H29.6214H29.6214H29.6215H29.6215H29.6216H29.6217H29.6217H29.6218H29.6218H29.6219H29.6219H29.622H29.6221H29.6221H29.6222H29.6222H29.6223H29.6224H29.6224H29.6225H29.6225H29.6226H29.6227H29.6227H29.6228H29.6228H29.6229H29.6229H29.623H29.6231H29.6231H29.6232H29.6232H29.6233H29.6234H29.6234H29.6235H29.6235H29.6236H29.6236H29.6237H29.6238H29.6238H29.6239H29.6239H29.624H29.6241H29.6241H29.6242H29.6242H29.6243H29.6244H29.6244H29.6245H29.6245H29.6246H29.6246H29.6247H29.6248H29.6248H29.6249H29.6249H29.625H29.6251H29.6251H29.6252H29.6252H29.6253H29.6253H29.6254H29.6255H29.6255H29.6256H29.6256H29.6257H29.6258H29.6258H29.6259H29.6259H29.626H29.6261H29.6261H29.6262H29.6262H29.6263H29.6263H29.6264H29.6265H29.6265H29.6266H29.6266H29.6267H29.6268H29.6268H29.6269H29.6269H29.627H29.627H29.6271H29.6272H29.6272H29.6273H29.6273H29.6274H29.6275H29.6275H29.6276H29.6276H29.6277H29.6278H29.6278H29.6279H29.6279H29.628H29.628H29.6281H29.6282H29.6282H29.6283H29.6283H29.6284H29.6285H29.6285H29.6286H29.6286H29.6287H29.6288H29.6288H29.6289H29.6289H29.629H29.629H29.6291H29.6292H29.6292H29.6293H29.6293H29.6294H29.6295H29.6295H29.6296H29.6296H29.6297H29.6297H29.6298H29.6299H29.6299H29.63H29.63H29.6301H29.6302H29.6302H29.6303H29.6303H29.6304H29.6305H29.6305H29.6306H29.6306H29.6307H29.6307H29.6308H29.6309H29.6309H29.631H29.631H29.6311H29.6312H29.6312H29.6313H29.6313H29.6314H29.6315H29.6315H29.6316H29.6316H29.6317H29.6317H29.6318H29.6319H29.6319H29.632H29.632H29.6321H29.6322H29.6322H29.6323H29.6323H29.6324H29.6325H29.6325H29.6326H29.6326H29.6327H29.6327H29.6328H29.6329H29.6329H29.633H29.633H29.6331H29.6332H29.6332C29.9118 12.3456 30.2186 12.1708 30.4463 11.9321C30.6797 11.6874 30.8651 11.3403 30.8651 10.9457C30.8651 10.5264 30.713 10.2394 30.5171 10.0568C30.3287 9.88121 30.1085 9.81012 29.9728 9.8005L29.9657 9.8M29.6034 12.3456L29.9657 9.8M29.9657 9.8H29.9587M29.9657 9.8H29.9587M29.9587 9.8H29.9586M29.9587 9.8H29.9586M29.9586 9.8H29.9586M29.9586 9.8H29.9586M29.9586 9.8H29.9585M29.9586 9.8H29.9585M29.9585 9.8H29.9585M29.9585 9.8H29.9585M29.9585 9.8H29.9584M29.9585 9.8H29.9584M29.9584 9.8H29.9584M29.9584 9.8H29.9584M29.9584 9.8H29.9583M29.9584 9.8H29.9583M29.9583 9.8H29.9583M29.9583 9.8H29.9583M29.9583 9.8H29.9583M29.9583 9.8H29.9583M29.9583 9.8H29.9582M29.9583 9.8H29.9582M29.9582 9.8H29.9582M29.9582 9.8H29.9582M29.9582 9.8H29.9581M29.9582 9.8H29.9581M29.9581 9.8H29.9581M29.9581 9.8H29.9581M29.9581 9.8H29.958M29.9581 9.8H29.958M29.958 9.8H29.958M29.958 9.8H29.958M29.958 9.8H29.9579M29.958 9.8H29.9579M29.9579 9.8H29.9579M29.9579 9.8H29.9579M29.9579 9.8H29.9578M29.9579 9.8H29.9578M29.9578 9.8H29.9578M29.9578 9.8H29.9578M29.9578 9.8H29.9577M29.9578 9.8H29.9577M29.9577 9.8H29.9577M29.9577 9.8H29.9577M29.9577 9.8H29.9577M29.9577 9.8H29.9577M29.9577 9.8H29.9576M29.9577 9.8H29.9576M29.9576 9.8H29.9576M29.9576 9.8H29.9576M29.9576 9.8H29.9575M29.9576 9.8H29.9575M29.9575 9.8H29.9575M29.9575 9.8H29.9575M29.9575 9.8H29.9574M29.9575 9.8H29.9574M29.9574 9.8H29.9574M29.9574 9.8H29.9574M29.9574 9.8H29.9573M29.9574 9.8H29.9573M29.9573 9.8H29.9573M29.9573 9.8H29.9573M29.9573 9.8H29.9572M29.9573 9.8H29.9572M29.9572 9.8H29.9572M29.9572 9.8H29.9572M29.9572 9.8H29.9571M29.9572 9.8H29.9571M29.9571 9.8H29.9571M29.9571 9.8H29.9571M29.9571 9.8H29.9571M29.9571 9.8H29.9571M29.9571 9.8H29.957M29.9571 9.8H29.957M29.957 9.8H29.957M29.957 9.8H29.957M29.957 9.8H29.9569M29.957 9.8H29.9569M29.9569 9.8H29.9569M29.9569 9.8H29.9569M29.9569 9.8H29.9568M29.9569 9.8H29.9568M29.9568 9.8H29.9568M29.9568 9.8H29.9568M29.9568 9.8H29.9567M29.9568 9.8H29.9567M29.9567 9.8H29.9567M29.9567 9.8H29.9567M29.9567 9.8H29.9566M29.9567 9.8H29.9566M29.9566 9.8H29.9566M29.9566 9.8H29.9566M29.9566 9.8H29.9565M29.9566 9.8H29.9565M29.9565 9.8H29.9565M29.9565 9.8H29.9565M29.9565 9.8H29.9565M29.9565 9.8H29.9565M29.9565 9.8H29.9564M29.9565 9.8H29.9564M29.9564 9.8H29.9564M29.9564 9.8H29.9564M29.9564 9.8H29.9563M29.9564 9.8H29.9563M29.9563 9.8H29.9563M29.9563 9.8H29.9563M29.9563 9.8H29.9562M29.9563 9.8H29.9562M29.9562 9.8H29.9562M29.9562 9.8H29.9562M29.9562 9.8H29.9561M29.9562 9.8H29.9561M29.9561 9.8H29.9561M29.9561 9.8H29.9561M29.9561 9.8H29.956M29.9561 9.8H29.956M29.956 9.8H29.956M29.956 9.8H29.956M29.956 9.8H29.9559M29.956 9.8H29.9559M29.9559 9.8H29.9559M29.9559 9.8H29.9559M29.9559 9.8H29.9559M29.9559 9.8H29.9559M29.9559 9.8H29.9558M29.9559 9.8H29.9558M29.9558 9.8H29.9558M29.9558 9.8H29.9558M29.9558 9.8H29.9557M29.9558 9.8H29.9557M29.9557 9.8H29.9557M29.9557 9.8H29.9557M29.9557 9.8H29.9556M29.9557 9.8H29.9556M29.9556 9.8H29.9556M29.9556 9.8H29.9556M29.9556 9.8H29.9555M29.9556 9.8H29.9555M29.9555 9.8H29.9555M29.9555 9.8H29.9555M29.9555 9.8H29.9554M29.9555 9.8H29.9554M29.9554 9.8H29.9554M29.9554 9.8H29.9554M29.9554 9.8H29.9553M29.9554 9.8H29.9553M29.9553 9.8H29.9553M29.9553 9.8H29.9553M29.9553 9.8H29.9553M29.9553 9.8H29.9553M29.9553 9.8H29.9552M29.9553 9.8H29.9552M29.9552 9.8H29.9552M29.9552 9.8H29.9552M29.9552 9.8H29.9551M29.9552 9.8H29.9551M29.9551 9.8H29.9551M29.9551 9.8H29.9551M29.9551 9.8H29.955M29.9551 9.8H29.955M29.955 9.8H29.955M29.955 9.8H29.955M29.955 9.8H29.9549M29.955 9.8H29.9549M29.9549 9.8H29.9549M29.9549 9.8H29.9549M29.9549 9.8H29.9548M29.9549 9.8H29.9548M29.9548 9.8H29.9548M29.9548 9.8H29.9548M29.9548 9.8H29.9548M29.9548 9.8H29.9548M29.9548 9.8H29.9547M29.9548 9.8H29.9547M29.9547 9.8H29.9547M29.9547 9.8H29.9547M29.9547 9.8H29.9546M29.9547 9.8H29.9546M29.9546 9.8H29.9546M29.9546 9.8H29.9546M29.9546 9.8H29.9545M29.9546 9.8H29.9545M29.9545 9.8H29.9545M29.9545 9.8H29.9545M29.9545 9.8H29.9544M29.9545 9.8H29.9544M29.9544 9.8H29.9544M29.9544 9.8H29.9544M29.9544 9.8H29.9543M29.9544 9.8H29.9543M29.9543 9.8H29.9543M29.9543 9.8H29.9543M29.9543 9.8H29.9542M29.9543 9.8H29.9542M29.9542 9.8H29.9542M29.9542 9.8H29.9542M29.9542 9.8H29.9542M29.9542 9.8H29.9542M29.9542 9.8H29.9541M29.9542 9.8H29.9541M29.9541 9.8H29.9541M29.9541 9.8H29.9541M29.9541 9.8H29.954M29.9541 9.8H29.954M29.954 9.8H29.954M29.954 9.8H29.954M29.954 9.8H29.9539M29.954 9.8H29.9539M29.9539 9.8H29.9539M29.9539 9.8H29.9539M29.9539 9.8H29.9538M29.9539 9.8H29.9538M29.9538 9.8H29.9538M29.9538 9.8H29.9538M29.9538 9.8H29.9537M29.9538 9.8H29.9537M29.9537 9.8H29.9537M29.9537 9.8H29.9537M29.9537 9.8H29.9536M29.9537 9.8H29.9536M29.9536 9.8H29.9536M29.9536 9.8H29.9536M29.9536 9.8H29.9536M29.9536 9.8H29.9536M29.9536 9.8H29.9535M29.9536 9.8H29.9535M29.9535 9.8H29.9535M29.9535 9.8H29.9535M29.9535 9.8H29.9534M29.9535 9.8H29.9534M29.9534 9.8H29.9534M29.9534 9.8H29.9534M29.9534 9.8H29.9533M29.9534 9.8H29.9533M29.9533 9.8H29.9533M29.9533 9.8H29.9533M29.9533 9.8H29.9532M29.9533 9.8H29.9532M29.9532 9.8H29.9532M29.9532 9.8H29.9532M29.9532 9.8H29.9531M29.9532 9.8H29.9531M29.9531 9.8H29.9531M29.9531 9.8H29.9531M29.9531 9.8H29.953M29.9531 9.8H29.953M29.953 9.8H29.953M29.953 9.8H29.953M29.953 9.8H29.953M29.953 9.8H29.953M29.953 9.8H29.9529M29.953 9.8H29.9529M29.9529 9.8H29.9529M29.9529 9.8H29.9529M29.9529 9.8H29.9528M29.9529 9.8H29.9528M29.9528 9.8H29.9528M29.9528 9.8H29.9528M29.9528 9.8H29.9527M29.9528 9.8H29.9527M29.9527 9.8H29.9527M29.9527 9.8H29.9527M29.9527 9.8H29.9526M29.9527 9.8H29.9526M29.9526 9.8H29.9526M29.9526 9.8H29.9526M29.9526 9.8H29.9525M29.9526 9.8H29.9525M29.9525 9.8H29.9525M29.9525 9.8H29.9525M29.9525 9.8H29.9524M29.9525 9.8H29.9524M29.9524 9.8H29.9524M29.9524 9.8H29.9524M29.9524 9.8H29.9524M29.9524 9.8H29.9524M29.9524 9.8H29.9523M29.9524 9.8H29.9523M29.9523 9.8H29.9523M29.9523 9.8H29.9523M29.9523 9.8H29.9522M29.9523 9.8H29.9522M29.9522 9.8H29.9522M29.9522 9.8H29.9522M29.9522 9.8H29.9521M29.9522 9.8H29.9521M29.9521 9.8H29.9521M29.9521 9.8H29.9521M29.9521 9.8H29.952M29.9521 9.8H29.952M29.952 9.8H29.952M29.952 9.8H29.952M29.952 9.8H29.9519M29.952 9.8H29.9519M29.9519 9.8H29.9519M29.9519 9.8H29.9519M29.9519 9.8H29.9518M29.9519 9.8H29.9518M29.9518 9.8H29.9518M29.9518 9.8H29.9518M29.9518 9.8H29.9518M29.9518 9.8H29.9518M29.9518 9.8H29.9517M29.9518 9.8H29.9517M29.9517 9.8H29.9517M29.9517 9.8H29.9517M29.9517 9.8H29.9516M29.9517 9.8H29.9516M29.9516 9.8H29.9516M29.9516 9.8H29.9516M29.9516 9.8H29.9515M29.9516 9.8H29.9515M29.9515 9.8H29.9515M29.9515 9.8H29.9515M29.9515 9.8H29.9514M29.9515 9.8H29.9514M29.9514 9.8H29.9514M29.9514 9.8H29.9514M29.9514 9.8H29.9513M29.9514 9.8H29.9513M29.9513 9.8H29.9513M29.9513 9.8H29.9513M29.9513 9.8H29.9512M29.9513 9.8H29.9512M29.9512 9.8H29.9512M29.9512 9.8H29.9512M29.9512 9.8H29.9512M29.9512 9.8H29.9512M29.9512 9.8H29.9511M29.9512 9.8H29.9511M29.9511 9.8H29.9511M29.9511 9.8H29.9511M29.9511 9.8H29.951M29.9511 9.8H29.951M29.951 9.8H29.951M29.951 9.8H29.951M29.951 9.8H29.9509M29.951 9.8H29.9509M29.9509 9.8H29.9509M29.9509 9.8H29.9509M29.9509 9.8H29.9508M29.9509 9.8H29.9508M29.9508 9.8H29.9508M29.9508 9.8H29.9508M29.9508 9.8H29.9507M29.9508 9.8H29.9507M29.9507 9.8H29.9507M29.9507 9.8H29.9507M29.9507 9.8H29.9506M29.9507 9.8H29.9506M29.9506 9.8H29.9506M29.9506 9.8H29.9506M29.9506 9.8H29.9506M29.9506 9.8H29.9506M29.9506 9.8H29.9505M29.9506 9.8H29.9505M29.9505 9.8H29.9505M29.9505 9.8H29.9505M29.9505 9.8H29.9504M29.9505 9.8H29.9504M29.9504 9.8H29.9504M29.9504 9.8H29.9504M29.9504 9.8H29.9503M29.9504 9.8H29.9503M29.9503 9.8H29.9503M29.9503 9.8H29.9503M29.9503 9.8H29.9502M29.9503 9.8H29.9502M29.9502 9.8H29.9502M29.9502 9.8H29.9502M29.9502 9.8H29.9501M29.9502 9.8H29.9501M29.9501 9.8H29.9501M29.9501 9.8H29.9501M29.9501 9.8H29.95M29.9501 9.8H29.95M29.95 9.8H29.95M29.95 9.8H29.95M29.95 9.8H29.9499M29.95 9.8H29.9499M29.9499 9.8H29.9499M29.9499 9.8H29.9499M29.9499 9.8H29.9499M29.9499 9.8H29.9499M29.9499 9.8H29.9498M29.9499 9.8H29.9498M29.9498 9.8H29.9498M29.9498 9.8H29.9498M29.9498 9.8H29.9497M29.9498 9.8H29.9497M29.9497 9.8H29.9497M29.9497 9.8H29.9497M29.9497 9.8H29.9496M29.9497 9.8H29.9496M29.9496 9.8H29.9496M29.9496 9.8H29.9496M29.9496 9.8H29.9495M29.9496 9.8H29.9495M29.9495 9.8H29.9495M29.9495 9.8H29.9495M29.9495 9.8H29.9494M29.9495 9.8H29.9494M29.9494 9.8H29.9494M29.9494 9.8H29.9494M29.9494 9.8H29.9493M29.9494 9.8H29.9493M29.9493 9.8H29.9493M29.9493 9.8H29.9493M29.9493 9.8H29.9493M29.9493 9.8H29.9493M29.9493 9.8H29.9492M29.9493 9.8H29.9492M29.9492 9.8H29.9492M29.9492 9.8H29.9492M29.9492 9.8H29.9491M29.9492 9.8H29.9491M29.9491 9.8H29.9491M29.9491 9.8H29.9491M29.9491 9.8H29.949M29.9491 9.8H29.949M29.949 9.8H29.949M29.949 9.8H29.949M29.949 9.8H29.9489M29.949 9.8H29.9489M29.9489 9.8H29.9489M29.9489 9.8H29.9489M29.9489 9.8H29.9488M29.9489 9.8H29.9488M29.9488 9.8H29.9488M29.9488 9.8H29.9488M29.9488 9.8H29.9487M29.9488 9.8H29.9487M29.9487 9.8H29.9487M29.9487 9.8H29.9487M29.9487 9.8H29.9487M29.9487 9.8H29.9487M29.9487 9.8H29.9486M29.9487 9.8H29.9486M29.9486 9.8H29.9486M29.9486 9.8H29.9486M29.9486 9.8H29.9485M29.9486 9.8H29.9485M29.9485 9.8H29.9485M29.9485 9.8H29.9485M29.9485 9.8H29.9484M29.9485 9.8H29.9484M29.9484 9.8H29.9484M29.9484 9.8H29.9484M29.9484 9.8H29.9483M29.9484 9.8H29.9483M29.9483 9.8H29.9483M29.9483 9.8H29.9483M29.9483 9.8H29.9482M29.9483 9.8H29.9482M29.9482 9.8H29.9482M29.9482 9.8H29.9482M29.9482 9.8H29.9481M29.9482 9.8H29.9481M29.9481 9.8H29.9481M29.9481 9.8H29.9481M29.9481 9.8H29.9481M29.9481 9.8H29.9481M29.9481 9.8H29.948M29.9481 9.8H29.948M29.948 9.8H29.948M29.948 9.8H29.948M29.948 9.8H29.9479M29.948 9.8H29.9479M29.9479 9.8H29.9479M29.9479 9.8H29.9479M29.9479 9.8H29.9478M29.9479 9.8H29.9478M29.9478 9.8H29.9478M29.9478 9.8H29.9478M29.9478 9.8H29.9477M29.9478 9.8H29.9477M29.9477 9.8H29.9477M29.9477 9.8H29.9477M29.9477 9.8H29.9476M29.9477 9.8H29.9476M29.9476 9.8H29.9476M29.9476 9.8H29.9476M29.9476 9.8H29.9475M29.9476 9.8H29.9475M29.9475 9.8H29.9475M29.9475 9.8H29.9475M29.9475 9.8H29.9474M29.9475 9.8H29.9474M29.9474 9.8H29.9474M29.9474 9.8H29.9474M29.9474 9.8H29.9474M29.9474 9.8H29.9474M29.9474 9.8H29.9473M29.9474 9.8H29.9473M29.9473 9.8H29.9473M29.9473 9.8H29.9473M29.9473 9.8H29.9472M29.9473 9.8H29.9472M29.9472 9.8H29.9472M29.9472 9.8H29.9472M29.9472 9.8H29.9471M29.9472 9.8H29.9471M29.9471 9.8H29.9471M29.9471 9.8H29.9471M29.9471 9.8H29.947M29.9471 9.8H29.947M29.947 9.8H29.947M29.947 9.8H29.947M29.947 9.8H29.9469M29.947 9.8H29.9469M29.9469 9.8H29.9469M29.9469 9.8H29.9469M29.9469 9.8H29.9468M29.9469 9.8H29.9468M29.9468 9.8H29.9468M29.9468 9.8H29.9468M29.9468 9.8H29.9468M29.9468 9.8H29.9468M29.9468 9.8H29.9467M29.9468 9.8H29.9467M29.9467 9.8H29.9467M29.9467 9.8H29.9467M29.9467 9.8H29.9466M29.9467 9.8H29.9466M29.9466 9.8H29.9466M29.9466 9.8H29.9466M29.9466 9.8H29.9465M29.9466 9.8H29.9465M29.9465 9.8H29.9465M29.9465 9.8H29.9465M29.9465 9.8H29.9464M29.9465 9.8H29.9464M29.9464 9.8H29.9464M29.9464 9.8H29.9464M29.9464 9.8H29.9463M29.9464 9.8H29.9463M29.9463 9.8H29.9463M29.9463 9.8H29.9463M29.9463 9.8H29.9462M29.9463 9.8H29.9462M29.9462 9.8H29.9462M29.9462 9.8H29.9462M29.9462 9.8H29.9461M29.9462 9.8H29.9461M29.9461 9.8H29.9461M29.9461 9.8H29.9461M29.9461 9.8H29.9461M29.9461 9.8H29.9461M29.9461 9.8H29.946M29.9461 9.8H29.946M29.946 9.8H29.946M29.946 9.8H29.946M29.946 9.8H29.9459M29.946 9.8H29.9459M29.9459 9.8H29.9459M29.9459 9.8H29.9459M29.9459 9.8H29.9458M29.9459 9.8H29.9458M29.9458 9.8H29.9458M29.9458 9.8H29.9458M29.9458 9.8H29.9457M29.9458 9.8H29.9457M29.9457 9.8H29.9457M29.9457 9.8H29.9457M29.9457 9.8H29.9456M29.9457 9.8H29.9456M29.9456 9.8H29.9456M29.9456 9.8H29.9456M29.9456 9.8H29.9455M29.9456 9.8H29.9455M29.9455 9.8H29.9455M29.9455 9.8H29.9455M29.9455 9.8H29.9454M29.9455 9.8H29.9454M29.9454 9.8H29.9454M29.9454 9.8H29.9454M29.9454 9.8H29.9454M29.9454 9.8H29.9454M29.9454 9.8H29.9453M29.9454 9.8H29.9453M29.9453 9.8H29.9453M29.9453 9.8H29.9453M29.9453 9.8H29.9452M29.9453 9.8H29.9452M29.9452 9.8H29.9452M29.9452 9.8H29.9452M29.9452 9.8H29.9451M29.9452 9.8H29.9451M29.9451 9.8H29.9451M29.9451 9.8H29.9451M29.9451 9.8H29.945M29.9451 9.8H29.945M29.945 9.8H29.945M29.945 9.8H29.945M29.945 9.8H29.9449M29.945 9.8H29.9449M29.9449 9.8H29.9449M29.9449 9.8H29.9449M29.9449 9.8H29.9448M29.9449 9.8H29.9448M29.9448 9.8H29.9448M29.9448 9.8H29.9448M29.9448 9.8H29.9448M29.9448 9.8H29.9448M29.9448 9.8H29.9447M29.9448 9.8H29.9447M29.9447 9.8H29.9447M29.9447 9.8H29.9447M29.9447 9.8H29.9446M29.9447 9.8H29.9446M29.9446 9.8H29.9446M29.9446 9.8H29.9446M29.9446 9.8H29.9445M29.9446 9.8H29.9445M29.9445 9.8H29.9445M29.9445 9.8H29.9445M29.9445 9.8H29.9444M29.9445 9.8H29.9444M29.9444 9.8H29.9444M29.9444 9.8H29.9444M29.9444 9.8H29.9443M29.9444 9.8H29.9443M29.9443 9.8H29.9443M29.9443 9.8H29.9443M29.9443 9.8H29.9442M29.9443 9.8H29.9442M29.9442 9.8H29.9442M29.9442 9.8H29.9442M29.9442 9.8H29.9441M29.9442 9.8H29.9441M29.9441 9.8H29.9441M29.9441 9.8H29.9441M29.9441 9.8H29.9441M29.9441 9.8H29.9441M29.9441 9.8H29.944M29.9441 9.8H29.944M29.944 9.8H29.944M29.944 9.8H29.944M29.944 9.8H29.9439M29.944 9.8H29.9439M29.9439 9.8H29.9439M29.9439 9.8H29.9439M29.9439 9.8H29.9438M29.9439 9.8H29.9438M29.9438 9.8H29.9438M29.9438 9.8H29.9438M29.9438 9.8H29.9437M29.9438 9.8H29.9437M29.9437 9.8H29.9437M29.9437 9.8H29.9437M29.9437 9.8H29.9436M29.9437 9.8H29.9436M29.9436 9.8H29.9436M29.9436 9.8H29.9436M29.9436 9.8H29.9435M29.9436 9.8H29.9435M29.9435 9.8H29.9435M29.9435 9.8H29.9435M29.9435 9.8H29.9434M29.9435 9.8H29.9434M29.9434 9.8H29.9434M29.9434 9.8H29.9434M29.9434 9.8H29.9434M29.9434 9.8H29.9434M29.9434 9.8H29.9433M29.9434 9.8H29.9433M29.9433 9.8H29.9433M29.9433 9.8H29.9433M29.9433 9.8H29.9432M29.9433 9.8H29.9432M29.9432 9.8H29.9432M29.9432 9.8H29.9432M29.9432 9.8H29.9431M29.9432 9.8H29.9431M29.9431 9.8H29.9431M29.9431 9.8H29.9431M29.9431 9.8H29.943M29.9431 9.8H29.943M29.943 9.8H29.943M29.943 9.8H29.943M29.943 9.8H29.9429M29.943 9.8H29.9429M29.9429 9.8H29.9429M29.9429 9.8H29.9429M29.9429 9.8H29.9428M29.9429 9.8H29.9428M29.9428 9.8H29.9428M29.9428 9.8H29.9428M29.9428 9.8H29.9427M29.9428 9.8H29.9427M29.9427 9.8H29.9427M29.9427 9.8H29.9427M29.9427 9.8H29.9427M29.9427 9.8H29.9427M29.9427 9.8H29.9426M29.9427 9.8H29.9426M29.9426 9.8H29.9426M29.9426 9.8H29.9426M29.9426 9.8H29.9425M29.9426 9.8H29.9425M29.9425 9.8H29.9425M29.9425 9.8H29.9425M29.9425 9.8H29.9424M29.9425 9.8H29.9424M29.9424 9.8H29.9424M29.9424 9.8H29.9424M29.9424 9.8H29.9423M29.9424 9.8H29.9423M29.9423 9.8H29.9423M29.9423 9.8H29.9423M29.9423 9.8H29.9422M29.9423 9.8H29.9422M29.9422 9.8H29.9422M29.9422 9.8H29.9422M29.9422 9.8H29.9421M29.9422 9.8H29.9421M29.9421 9.8H29.9421M29.9421 9.8H29.9421M29.9421 9.8H29.942M29.9421 9.8H29.942M29.942 9.8H29.942M29.942 9.8H29.942M29.942 9.8H29.9419M29.942 9.8H29.9419M29.9419 9.8H29.9419M29.9419 9.8H29.9419M29.9419 9.8H29.9419M29.9419 9.8H29.9419M29.9419 9.8H29.9418M29.9419 9.8H29.9418M29.9418 9.8H29.9418M29.9418 9.8H29.9418M29.9418 9.8H29.9417M29.9418 9.8H29.9417M29.9417 9.8H29.9417M29.9417 9.8H29.9417M29.9417 9.8H29.9416M29.9417 9.8H29.9416M29.9416 9.8H29.9416M29.9416 9.8H29.9416M29.9416 9.8H29.9415M29.9416 9.8H29.9415M29.9415 9.8H29.9415M29.9415 9.8H29.9415M29.9415 9.8H29.9414M29.9415 9.8H29.9414M29.9414 9.8H29.9414M29.9414 9.8H29.9414M29.9414 9.8H29.9413M29.9414 9.8H29.9413M29.9413 9.8H29.9413M29.9413 9.8H29.9413M29.9413 9.8H29.9412M29.9413 9.8H29.9412M29.9412 9.8H29.9412M29.9412 9.8H29.9412M29.9412 9.8H29.9412M29.9412 9.8H29.9412M29.9412 9.8H29.9411M29.9412 9.8H29.9411M29.9411 9.8H29.9411M29.9411 9.8H29.9411M29.9411 9.8H29.941M29.9411 9.8H29.941M29.941 9.8H29.941M29.941 9.8H29.941M29.941 9.8H29.9409M29.941 9.8H29.9409M29.9409 9.8H29.9409M29.9409 9.8H29.9409M29.9409 9.8H29.9408M29.9409 9.8H29.9408M29.9408 9.8H29.9408M29.9408 9.8H29.9408M29.9408 9.8H29.9407M29.9408 9.8H29.9407M29.9407 9.8H29.9407M29.9407 9.8H29.9407M29.9407 9.8H29.9406M29.9407 9.8H29.9406M29.9406 9.8H29.9406M29.9406 9.8H29.9406M29.9406 9.8H29.9405M29.9406 9.8H29.9405M29.9405 9.8H29.9405M29.9405 9.8H29.9405M29.9405 9.8H29.9404M29.9405 9.8H29.9404M29.9404 9.8H29.9404M29.9404 9.8H29.9404M29.9404 9.8H29.9404M29.9404 9.8H29.9404M29.9404 9.8H29.9403M29.9404 9.8H29.9403M29.9403 9.8H29.9403M29.9403 9.8H29.9403M29.9403 9.8H29.9402M29.9403 9.8H29.9402M29.9402 9.8H29.9402M29.9402 9.8H29.9402M29.9402 9.8H29.9401M29.9402 9.8H29.9401M29.9401 9.8H29.9401M29.9401 9.8H29.9401M29.9401 9.8H29.94M29.9401 9.8H29.94M29.94 9.8H29.94M29.94 9.8H29.94M29.94 9.8H29.9399M29.94 9.8H29.9399M29.9399 9.8H29.9399M29.9399 9.8H29.9399M29.9399 9.8H29.9398M29.9399 9.8H29.9398M29.9398 9.8H29.9398M29.9398 9.8H29.9398M29.9398 9.8H29.9397M29.9398 9.8H29.9397M29.9397 9.8H29.9397M29.9397 9.8H29.9397M29.9397 9.8H29.9396M29.9397 9.8H29.9396M29.9396 9.8H29.9396M29.9396 9.8H29.9396M29.9396 9.8H29.9396M29.9396 9.8H29.9396M29.9396 9.8H29.9395M29.9396 9.8H29.9395M29.9395 9.8H29.9395M29.9395 9.8H29.9395M29.9395 9.8H29.9394M29.9395 9.8H29.9394M29.9394 9.8H29.9394M29.9394 9.8H29.9394M29.9394 9.8H29.9393M29.9394 9.8H29.9393M29.9393 9.8H29.9393M29.9393 9.8H29.9393M29.9393 9.8H29.9392M29.9393 9.8H29.9392M29.9392 9.8H29.9392M29.9392 9.8H29.9392M29.9392 9.8H29.9391M29.9392 9.8H29.9391M29.9391 9.8H29.9391M29.9391 9.8H29.9391M29.9391 9.8H29.939M29.9391 9.8H29.939M29.939 9.8H29.939M29.939 9.8H29.939M29.939 9.8H29.9389M29.939 9.8H29.9389M29.9389 9.8H29.9389M29.9389 9.8H29.9389M29.9389 9.8H29.9388M29.9389 9.8H29.9388M29.9388 9.8H29.9388M29.9388 9.8H29.9388M29.9388 9.8H29.9388M29.9388 9.8H29.9388M29.9388 9.8H29.9387M29.9388 9.8H29.9387M29.9387 9.8H29.9387M29.9387 9.8H29.9387M29.9387 9.8H29.9386M29.9387 9.8H29.9386M29.9386 9.8H29.9386M29.9386 9.8H29.9386M29.9386 9.8H29.9385M29.9386 9.8H29.9385M29.9385 9.8H29.9385M29.9385 9.8H29.9385M29.9385 9.8H29.9384M29.9385 9.8H29.9384M29.9384 9.8H29.9384M29.9384 9.8H29.9384M29.9384 9.8H29.9383M29.9384 9.8H29.9383M29.9383 9.8H29.9383M29.9383 9.8H29.9383M29.9383 9.8H29.9382M29.9383 9.8H29.9382M29.9382 9.8H29.9382M29.9382 9.8H29.9382M29.9382 9.8H29.9381M29.9382 9.8H29.9381M29.9381 9.8H29.9381M29.9381 9.8H29.9381M29.9381 9.8H29.938M29.9381 9.8H29.938M29.938 9.8H29.938M29.938 9.8H29.938M29.938 9.8H29.938M29.938 9.8H29.938M29.938 9.8H29.9379M29.938 9.8H29.9379M29.9379 9.8H29.9379M29.9379 9.8H29.9379M29.9379 9.8H29.9378M29.9379 9.8H29.9378M29.9378 9.8H29.9378M29.9378 9.8H29.9378M29.9378 9.8H29.9377M29.9378 9.8H29.9377M29.9377 9.8H29.9377M29.9377 9.8H29.9377M29.9377 9.8H29.9376M29.9377 9.8H29.9376M29.9376 9.8H29.9376M29.9376 9.8H29.9376M29.9376 9.8H29.9375M29.9376 9.8H29.9375M29.9375 9.8H29.9375M29.9375 9.8H29.9375M29.9375 9.8H29.9374M29.9375 9.8H29.9374M29.9374 9.8H29.9374M29.9374 9.8H29.9374M29.9374 9.8H29.9373M29.9374 9.8H29.9373M29.9373 9.8H29.9373M29.9373 9.8H29.9373M29.9373 9.8H29.9372M29.9373 9.8H29.9372M29.9372 9.8H29.9372M29.9372 9.8H29.9372M29.9372 9.8H29.9371M29.9372 9.8H29.9371M29.9371 9.8H29.9371M29.9371 9.8H29.9371M29.9371 9.8H29.9371M29.9371 9.8H29.9371M29.9371 9.8H29.937M29.9371 9.8H29.937M29.937 9.8H29.937M29.937 9.8H29.937M29.937 9.8H29.9369M29.937 9.8H29.9369M29.9369 9.8H29.9369M29.9369 9.8H29.9369M29.9369 9.8H29.9368M29.9369 9.8H29.9368M29.9368 9.8H29.9368M29.9368 9.8H29.9368M29.9368 9.8H29.9367M29.9368 9.8H29.9367M29.9367 9.8H29.9367M29.9367 9.8H29.9367M29.9367 9.8H29.9366M29.9367 9.8H29.9366M29.9366 9.8H29.9366M29.9366 9.8H29.9366M29.9366 9.8H29.9365M29.9366 9.8H29.9365M29.9365 9.8H29.9365M29.9365 9.8H29.9365M29.9365 9.8H29.9364M29.9365 9.8H29.9364M29.9364 9.8H29.9364M29.9364 9.8H29.9364M29.9364 9.8H29.9363M29.9364 9.8H29.9363M29.9363 9.8H29.9363M29.9363 9.8H29.9363M29.9363 9.8H29.9362M29.9363 9.8H29.9362M29.9362 9.8H29.9362M29.9362 9.8H29.9362M29.9362 9.8H29.9362M29.9362 9.8H29.9362M29.9362 9.8H29.9361M29.9362 9.8H29.9361M29.9361 9.8H29.9361M29.9361 9.8H29.9361M29.9361 9.8H29.936M29.9361 9.8H29.936M29.936 9.8H29.936M29.936 9.8H29.936M29.936 9.8H29.9359M29.936 9.8H29.9359M29.9359 9.8H29.9359M29.9359 9.8H29.9359M29.9359 9.8H29.9358M29.9359 9.8H29.9358M29.9358 9.8H29.9358M29.9358 9.8H29.9358M29.9358 9.8H29.9357M29.9358 9.8H29.9357M29.9357 9.8H29.9357M29.9357 9.8H29.9357M29.9357 9.8H29.9356M29.9357 9.8H29.9356M29.9356 9.8H29.9356M29.9356 9.8H29.9356M29.9356 9.8H29.9355M29.9356 9.8H29.9355M29.9355 9.8H29.9355M29.9355 9.8H29.9355M29.9355 9.8H29.9354M29.9355 9.8H29.9354M29.9354 9.8H29.9354M29.9354 9.8H29.9354M29.9354 9.8H29.9353M29.9354 9.8H29.9353M29.9353 9.8H29.9353M29.9353 9.8H29.9353M29.9353 9.8H29.9352M29.9353 9.8H29.9352M29.9352 9.8H29.9352M29.9352 9.8H29.9352M29.9352 9.8H29.9352M29.9352 9.8H29.9352M29.9352 9.8H29.9351M29.9352 9.8H29.9351M29.9351 9.8H29.9351M29.9351 9.8H29.9351M29.9351 9.8H29.935M29.9351 9.8H29.935M29.935 9.8H29.935M29.935 9.8H29.935M29.935 9.8H29.9349M29.935 9.8H29.9349M29.9349 9.8H29.9349M29.9349 9.8H29.9349M29.9349 9.8H29.9348M29.9349 9.8H29.9348M29.9348 9.8C29.7851 9.8 29.6487 9.86018 29.5442 9.92087M29.9348 9.8L29.5442 9.92087M29.5442 9.92087C29.4399 9.98148 29.3463 10.0555 29.2806 10.1075M29.5442 9.92087L29.2806 10.1075M29.2806 10.1075C29.2793 10.1085 29.278 10.1096 29.2767 10.1106L29.2806 10.1075ZM29.6158 11.5937C29.6184 11.5927 29.6211 11.5917 29.6237 11.5906C29.6927 11.5618 29.7526 11.4987 29.7871 11.4205C29.8335 11.3915 29.8788 11.3465 29.9096 11.2736C29.9115 11.269 29.9134 11.2643 29.9152 11.2595C29.944 11.1833 29.9635 11.125 29.9765 11.0787C30.0034 11.1374 30.0186 11.2036 30.0186 11.2736C30.0186 11.2819 30.0184 11.2902 30.018 11.2984L29.6158 11.5937ZM29.6099 11.5958C29.6101 11.5958 29.6103 11.5957 29.6105 11.5956L29.6099 11.5958Z" fill="#3DFF49" stroke="#3DFF49" stroke-width="0.4"/>
</svg>