<svg width="24" height="25" viewBox="0 0 24 25" fill="none" xmlns="http://www.w3.org/2000/svg">
<g clip-path="url(#clip0_589_7537)">
<path d="M24 12.5003C24 11.0325 23.736 9.62639 23.2536 8.32645L12 7.80469L0.746391 8.32641C0.264047 9.62639 0 11.0325 0 12.5003C0 13.9682 0.264047 15.3743 0.746391 16.6742L12 17.196L23.2536 16.6743C23.736 15.3743 24 13.9682 24 12.5003Z" fill="#D80027"/>
<path d="M12.0002 24.5C17.1598 24.5 21.5583 21.2435 23.2538 16.6739H0.746582C2.4421 21.2435 6.84061 24.5 12.0002 24.5Z" fill="#6DA544"/>
<path d="M0.746582 8.32611H23.2538C21.5583 3.7565 17.1598 0.5 12.0002 0.5C6.84061 0.5 2.4421 3.7565 0.746582 8.32611Z" fill="#338AF3"/>
<path d="M12.2609 15.8913C10.388 15.8913 8.86964 14.3729 8.86964 12.5C8.86964 10.6271 10.388 9.10869 12.2609 9.10869C12.8449 9.10869 13.3944 9.25635 13.8742 9.51632C13.1215 8.78033 12.0923 8.32607 10.9566 8.32607C8.65139 8.32607 6.78271 10.1948 6.78271 12.5C6.78271 14.8051 8.65143 16.6738 10.9566 16.6738C12.0924 16.6738 13.1216 16.2196 13.8742 15.4836C13.3944 15.7437 12.8449 15.8913 12.2609 15.8913Z" fill="#F0F0F0"/>
<path d="M14.8698 10.1522L15.319 11.4155L16.53 10.8398L15.9543 12.0508L17.2176 12.5L15.9543 12.9493L16.53 14.1602L15.319 13.5845L14.8698 14.8478L14.4206 13.5845L13.2096 14.1602L13.7853 12.9493L12.522 12.5L13.7853 12.0508L13.2096 10.8398L14.4206 11.4155L14.8698 10.1522Z" fill="#F0F0F0"/>
</g>
<defs>
<clipPath id="clip0_589_7537">
<rect width="24" height="24" fill="white" transform="translate(0 0.5)"/>
</clipPath>
</defs>
</svg>
