<svg xmlns="http://www.w3.org/2000/svg" width="24" height="25" viewBox="0 0 24 25" fill="none">
  <path d="M16.1007 13.859L15.5719 13.3272H15.5719L16.1007 13.859ZM16.5562 13.4062L17.085 13.938H17.085L16.5562 13.4062ZM18.9728 13.0894L18.6146 13.7483L18.9728 13.0894ZM20.8833 14.128L20.5251 14.7869L20.8833 14.128ZM21.4217 17.383L21.9505 17.9148L21.4217 17.383ZM20.0011 18.7954L19.4723 18.2636L20.0011 18.7954ZM18.6763 19.4651L18.7459 20.2119H18.7459L18.6763 19.4651ZM8.81536 15.2266L9.34418 14.6947L8.81536 15.2266ZM4.00289 6.24561L3.2541 6.28816L3.2541 6.28816L4.00289 6.24561ZM10.4775 7.69738L11.0063 8.22922H11.0063L10.4775 7.69738ZM10.6342 5.04348L11.2346 4.59401L10.6342 5.04348ZM9.37326 3.35908L8.77286 3.80855V3.80855L9.37326 3.35908ZM6.26145 3.07483L6.79027 3.60667H6.79027L6.26145 3.07483ZM4.69185 4.63552L4.16303 4.10368H4.16303L4.69185 4.63552ZM12.0631 11.9972L12.5919 11.4654L12.0631 11.9972ZM16.6295 14.3909L17.085 13.938L16.0273 12.8743L15.5719 13.3272L16.6295 14.3909ZM18.6146 13.7483L20.5251 14.7869L21.2415 13.4691L19.331 12.4305L18.6146 13.7483ZM20.8929 16.8511L19.4723 18.2636L20.5299 19.3273L21.9505 17.9148L20.8929 16.8511ZM18.6067 18.7184C17.1568 18.8535 13.4056 18.7331 9.34418 14.6947L8.28654 15.7584C12.7186 20.1653 16.9369 20.3805 18.7459 20.2119L18.6067 18.7184ZM9.34418 14.6947C5.4728 10.8453 4.83151 7.60765 4.75168 6.20305L3.2541 6.28816C3.35456 8.05599 4.14863 11.644 8.28654 15.7584L9.34418 14.6947ZM10.7195 8.51441L11.0063 8.22922L9.9487 7.16555L9.66189 7.45073L10.7195 8.51441ZM11.2346 4.59401L9.97365 2.90961L8.77286 3.80855L10.0338 5.49296L11.2346 4.59401ZM5.73263 2.54299L4.16303 4.10368L5.22067 5.16736L6.79027 3.60667L5.73263 2.54299ZM10.1907 7.98257C9.66189 7.45073 9.66117 7.45144 9.66045 7.45216C9.66021 7.4524 9.65949 7.45313 9.659 7.45362C9.65802 7.45461 9.65702 7.45561 9.65601 7.45664C9.65398 7.45871 9.65188 7.46086 9.64972 7.4631C9.64539 7.46759 9.64081 7.47245 9.63599 7.47769C9.62634 7.48816 9.61575 7.50014 9.60441 7.51367C9.58174 7.54072 9.55605 7.57403 9.52905 7.61388C9.47492 7.69377 9.41594 7.7994 9.36589 7.93224C9.26376 8.20329 9.20901 8.5606 9.27765 9.00305C9.41189 9.86833 10.0078 11.0113 11.5343 12.5291L12.5919 11.4654C11.1634 10.045 10.8231 9.18059 10.7599 8.77309C10.7298 8.57916 10.761 8.48371 10.7696 8.46111C10.7748 8.44713 10.7773 8.4457 10.7709 8.45525C10.7677 8.45992 10.7624 8.46723 10.7541 8.47708C10.75 8.48201 10.7451 8.48759 10.7394 8.49381C10.7365 8.49692 10.7335 8.50019 10.7301 8.50362C10.7285 8.50534 10.7268 8.50709 10.725 8.50889C10.7241 8.50979 10.7232 8.5107 10.7223 8.51162C10.7219 8.51208 10.7212 8.51278 10.7209 8.51301C10.7202 8.51371 10.7195 8.51441 10.1907 7.98257ZM11.5343 12.5291C13.0613 14.0474 14.2096 14.6383 15.0763 14.7713C15.5192 14.8392 15.8763 14.785 16.1472 14.6841C16.28 14.6346 16.3858 14.5763 16.4658 14.5227C16.5058 14.4959 16.5392 14.4704 16.5663 14.4479C16.5799 14.4367 16.5919 14.4262 16.6024 14.4166C16.6077 14.4118 16.6126 14.4073 16.6171 14.403C16.6194 14.4008 16.6215 14.3987 16.6236 14.3967C16.6246 14.3957 16.6256 14.3947 16.6266 14.3937C16.6271 14.3932 16.6279 14.3925 16.6281 14.3923C16.6288 14.3916 16.6295 14.3909 16.1007 13.859C15.5719 13.3272 15.5726 13.3265 15.5733 13.3258C15.5735 13.3256 15.5742 13.3249 15.5747 13.3244C15.5756 13.3235 15.5765 13.3226 15.5774 13.3217C15.5793 13.32 15.581 13.3183 15.5827 13.3166C15.5862 13.3133 15.5895 13.3103 15.5926 13.3074C15.5988 13.3018 15.6044 13.2969 15.6094 13.2929C15.6192 13.2847 15.6265 13.2795 15.631 13.2764C15.6403 13.2702 15.6384 13.273 15.6236 13.2785C15.5991 13.2876 15.501 13.3189 15.3038 13.2886C14.8905 13.2253 14.02 12.8853 12.5919 11.4654L11.5343 12.5291ZM9.97365 2.90961C8.95434 1.54802 6.94996 1.33257 5.73263 2.54299L6.79027 3.60667C7.32195 3.078 8.26623 3.13181 8.77286 3.80855L9.97365 2.90961ZM4.75168 6.20305C4.73201 5.85694 4.89075 5.4954 5.22067 5.16736L4.16303 4.10368C3.62571 4.63795 3.20329 5.39425 3.2541 6.28816L4.75168 6.20305ZM19.4723 18.2636C19.1975 18.5369 18.9029 18.6908 18.6067 18.7184L18.7459 20.2119C19.4805 20.1434 20.0824 19.7723 20.5299 19.3273L19.4723 18.2636ZM11.0063 8.22922C11.9908 7.2503 12.064 5.7019 11.2346 4.59401L10.0338 5.49295C10.4373 6.03193 10.3773 6.73938 9.9487 7.16555L11.0063 8.22922ZM20.5251 14.7869C21.3429 15.2315 21.4703 16.2769 20.8929 16.8511L21.9505 17.9148C23.2908 16.5821 22.8775 14.3584 21.2415 13.4691L20.5251 14.7869ZM17.085 13.938C17.469 13.5562 18.0871 13.4616 18.6146 13.7483L19.331 12.4305C18.2474 11.8414 16.9026 12.0041 16.0273 12.8743L17.085 13.938Z" fill="#6C756F"/>
</svg>