<svg xmlns="http://www.w3.org/2000/svg" width="24" height="25" viewBox="0 0 24 25" fill="none">
  <path d="M15.7285 4.38392C17.1629 2.94403 19.2609 2.91379 20.4224 4.07976C21.586 5.24794 21.5547 7.35917 20.1194 8.80005L17.6956 11.2333C17.4033 11.5267 17.4042 12.0016 17.6976 12.2939C17.9911 12.5863 18.466 12.5854 18.7583 12.2919L21.1821 9.85865C23.0934 7.93993 23.3334 4.87661 21.4851 3.02116C19.6346 1.16351 16.5781 1.40562 14.6658 3.32532L9.81817 8.19177C7.90688 10.1105 7.66692 13.1738 9.51519 15.0293C9.80751 15.3228 10.2824 15.3237 10.5758 15.0314C10.8693 14.739 10.8702 14.2642 10.5779 13.9707C9.41425 12.8025 9.44559 10.6912 10.8809 9.25038L15.7285 4.38392Z" fill="#1D2B21"/>
  <path d="M14.4851 9.97069C14.1928 9.67723 13.7179 9.67631 13.4244 9.96864C13.131 10.261 13.1301 10.7358 13.4224 11.0293C14.586 12.1975 14.5547 14.3087 13.1194 15.7496L8.27178 20.6161C6.83745 22.056 4.73937 22.0862 3.57791 20.9202C2.41424 19.752 2.44559 17.6408 3.88089 16.1999L6.30473 13.7666C6.59706 13.4732 6.59614 12.9983 6.30268 12.706C6.00922 12.4137 5.53434 12.4146 5.24202 12.708L2.81818 15.1413C0.906876 17.06 0.666916 20.1234 2.51519 21.9788C4.36567 23.8365 7.42221 23.5944 9.33449 21.6747L14.1821 16.8082C16.0934 14.8894 16.3334 11.8261 14.4851 9.97069Z" fill="#1D2B21"/>
</svg>