<svg xmlns="http://www.w3.org/2000/svg" width="41" height="41" viewBox="0 0 41 41" fill="none">
  <path d="M28.7333 20.5002C33.3357 20.5002 37.0667 16.7692 37.0667 12.1668C37.0667 7.56446 33.3357 3.8335 28.7333 3.8335C24.131 3.8335 20.4 7.56446 20.4 12.1668C20.4 13.4999 20.713 14.7599 21.2695 15.8772C21.4174 16.1742 21.4667 16.5136 21.3809 16.834L20.8846 18.689C20.6691 19.4943 21.4058 20.231 22.2111 20.0156L24.0662 19.5192C24.3866 19.4335 24.726 19.4827 25.0229 19.6306C26.1403 20.1871 27.4003 20.5002 28.7333 20.5002Z" stroke="#3D73FF" stroke-width="2"/>
  <path d="M23.9012 27.2118L23.1761 26.5232H23.1761L23.9012 27.2118ZM24.6603 26.4127L25.3853 27.1014L24.6603 26.4127ZM28.688 25.8537L28.1892 26.7204L28.688 25.8537ZM31.8722 27.6865L31.3733 28.5532L31.8722 27.6865ZM32.7694 33.4306L33.4945 34.1192V34.1192L32.7694 33.4306ZM30.4019 35.9232L29.6768 35.2345L30.4019 35.9232ZM28.1938 37.105L28.292 38.1002L28.1938 37.105ZM11.7589 29.6251L12.484 28.9365L11.7589 29.6251ZM3.73814 13.7764L2.73958 13.83L2.73958 13.83L3.73814 13.7764ZM14.5292 16.3384L15.2542 17.027L14.5292 16.3384ZM14.7904 11.655L15.6069 11.0777L14.7904 11.655ZM12.6888 8.68253L11.8722 9.25984V9.25984L12.6888 8.68253ZM7.50241 8.18091L8.22747 8.86959V8.86959L7.50241 8.18091ZM4.88641 10.9351L4.16135 10.2464H4.16135L4.88641 10.9351ZM17.1719 23.9263L17.8969 23.2376L17.1719 23.9263ZM24.6262 27.9005L25.3853 27.1014L23.9352 25.724L23.1761 26.5232L24.6262 27.9005ZM28.1892 26.7204L31.3733 28.5532L32.3711 26.8198L29.1869 24.987L28.1892 26.7204ZM32.0444 32.7419L29.6768 35.2345L31.1269 36.6119L33.4945 34.1192L32.0444 32.7419ZM28.0956 36.1098C25.6391 36.3523 19.3185 36.1319 12.484 28.9365L11.0339 30.3138C18.3553 38.0219 25.317 38.3938 28.292 38.1002L28.0956 36.1098ZM12.484 28.9365C5.98094 22.09 4.8748 16.2957 4.7367 13.7228L2.73958 13.83C2.90197 16.8555 4.1881 23.1065 11.0339 30.3138L12.484 28.9365ZM14.7762 17.5303L15.2542 17.027L13.8041 15.6497L13.3261 16.1529L14.7762 17.5303ZM15.6069 11.0777L13.5053 8.10522L11.8722 9.25984L13.9739 12.2323L15.6069 11.0777ZM6.77735 7.49222L4.16135 10.2464L5.61147 11.6238L8.22747 8.86959L6.77735 7.49222ZM14.0512 16.8416C13.3261 16.1529 13.3252 16.1539 13.3243 16.1549C13.3239 16.1552 13.323 16.1562 13.3224 16.1569C13.3211 16.1583 13.3198 16.1597 13.3184 16.1611C13.3158 16.164 13.313 16.167 13.3101 16.1702C13.3043 16.1765 13.2982 16.1834 13.2916 16.191C13.2785 16.2061 13.2638 16.2236 13.248 16.2436C13.2162 16.2837 13.1797 16.3338 13.1409 16.3944C13.0632 16.5158 12.9773 16.6783 12.9041 16.8842C12.7554 17.3021 12.67 17.8668 12.7752 18.5845C12.9824 19.9986 13.9178 21.9525 16.4468 24.615L17.8969 23.2376C15.5009 20.7151 14.876 19.1266 14.7541 18.2946C14.6947 17.8893 14.7526 17.655 14.7883 17.5547C14.8072 17.5015 14.8238 17.4751 14.8256 17.4724C14.8265 17.4709 14.8239 17.4751 14.8162 17.4848C14.8124 17.4897 14.8073 17.4959 14.8007 17.5035C14.7974 17.5073 14.7937 17.5114 14.7896 17.5159C14.7876 17.5181 14.7855 17.5204 14.7832 17.5228C14.7821 17.5241 14.781 17.5253 14.7798 17.5265C14.7792 17.5271 14.7783 17.5281 14.778 17.5284C14.7771 17.5294 14.7762 17.5303 14.0512 16.8416ZM16.4468 24.615C18.9698 27.2712 20.8397 28.2759 22.2231 28.5006C22.9301 28.6154 23.492 28.5225 23.9092 28.3579C24.1137 28.2772 24.274 28.1831 24.3926 28.099C24.4517 28.057 24.5005 28.0176 24.5392 27.9837C24.5585 27.9667 24.5754 27.951 24.5899 27.9371C24.5971 27.9301 24.6038 27.9235 24.6098 27.9174C24.6129 27.9144 24.6157 27.9114 24.6185 27.9086C24.6198 27.9072 24.6212 27.9058 24.6225 27.9045C24.6231 27.9038 24.6241 27.9028 24.6244 27.9025C24.6253 27.9015 24.6262 27.9005 23.9012 27.2118C23.1761 26.5232 23.177 26.5222 23.1779 26.5212C23.1782 26.5209 23.1791 26.52 23.1797 26.5194C23.1809 26.5181 23.1821 26.5169 23.1832 26.5158C23.1855 26.5134 23.1877 26.5111 23.1899 26.509C23.1942 26.5047 23.1981 26.5007 23.2018 26.4972C23.2092 26.4901 23.2153 26.4845 23.2203 26.4802C23.2301 26.4715 23.2353 26.4678 23.2355 26.4677C23.2362 26.4672 23.217 26.481 23.1754 26.4974C23.1004 26.527 22.9034 26.5848 22.5437 26.5264C21.7936 26.4046 20.299 25.7665 17.8969 23.2376L16.4468 24.615ZM13.5053 8.10522C11.8995 5.83407 8.70376 5.46407 6.77735 7.49222L8.22747 8.86959C9.21608 7.82877 10.9348 7.93394 11.8722 9.25984L13.5053 8.10522ZM4.7367 13.7228C4.69638 12.9716 5.02507 12.2411 5.61147 11.6238L4.16135 10.2464C3.30234 11.1508 2.66244 12.3929 2.73958 13.83L4.7367 13.7228ZM29.6768 35.2345C29.1843 35.753 28.6457 36.0555 28.0956 36.1098L28.292 38.1002C29.4599 37.9849 30.4154 37.361 31.1269 36.6119L29.6768 35.2345ZM15.2542 17.027C16.7799 15.4209 16.8934 12.8972 15.6069 11.0777L13.9739 12.2323C14.7422 13.319 14.6337 14.7763 13.8041 15.6497L15.2542 17.027ZM31.3733 28.5532C32.8768 29.4185 33.1811 31.5452 32.0444 32.7419L33.4945 34.1192C35.5541 31.9509 34.9572 28.3084 32.3711 26.8198L31.3733 28.5532ZM25.3853 27.1014C26.1091 26.3393 27.2371 26.1724 28.1892 26.7204L29.1869 24.987C27.4537 23.9894 25.3101 24.2765 23.9352 25.724L25.3853 27.1014Z" fill="#3D73FF"/>
</svg>