<svg xmlns="http://www.w3.org/2000/svg" width="41" height="41" viewBox="0 0 41 41" fill="none">
  <path d="M4.13327 23.8333C4.13327 17.5479 4.13327 14.4052 6.08589 12.4526C8.03851 10.5 11.1812 10.5 17.4666 10.5H24.1333C30.4187 10.5 33.5614 10.5 35.514 12.4526C37.4666 14.4052 37.4666 17.5479 37.4666 23.8333C37.4666 30.1187 37.4666 33.2614 35.514 35.214C33.5614 37.1667 30.4187 37.1667 24.1333 37.1667H17.4666C11.1812 37.1667 8.03851 37.1667 6.08589 35.214C4.13327 33.2614 4.13327 30.1187 4.13327 23.8333Z" stroke="#9713FF" stroke-width="2"/>
  <path d="M27.4666 10.5002C27.4666 7.35747 27.4666 5.78612 26.4903 4.80981C25.514 3.8335 23.9426 3.8335 20.7999 3.8335C17.6572 3.8335 16.0859 3.8335 15.1096 4.80981C14.1333 5.78612 14.1333 7.35747 14.1333 10.5002" stroke="#9713FF" stroke-width="2"/>
  <path d="M20.7999 29.3887C22.6409 29.3887 24.1333 28.1451 24.1333 26.6109C24.1333 25.0768 22.6409 23.8332 20.7999 23.8332C18.959 23.8332 17.4666 22.5895 17.4666 21.0554C17.4666 19.5213 18.959 18.2776 20.7999 18.2776M20.7999 29.3887C18.959 29.3887 17.4666 28.1451 17.4666 26.6109M20.7999 29.3887V30.4998M20.7999 17.1665V18.2776M20.7999 18.2776C22.6409 18.2776 24.1333 19.5213 24.1333 21.0554" stroke="#9713FF" stroke-width="2" stroke-linecap="round"/>
</svg>